<svg id="Gruppe_633" data-name="Gruppe 633" xmlns="http://www.w3.org/2000/svg" xmlns:xlink="http://www.w3.org/1999/xlink" width="30.205" height="27.922" viewBox="0 0 30.205 27.922">
  <defs>
    <clipPath id="clip-path">
      <rect id="Rechteck_278" data-name="Rechteck 278" width="30.205" height="27.922" fill="#fb6b00"/>
    </clipPath>
  </defs>
  <g id="Gruppe_632" data-name="Gruppe 632" transform="translate(0 0)" clip-path="url(#clip-path)">
    <path id="Pfad_4286" data-name="Pfad 4286" d="M24.033,7.05c.027-.117-.106-.075-.126-.092,0,.191.16.089.126.092" transform="translate(5.129 1.492)" fill="#fb6b00"/>
    <path id="Pfad_4287" data-name="Pfad 4287" d="M23.931,8.7l-.039-.051.029.335Z" transform="translate(5.126 1.856)" fill="#fb6b00"/>
    <path id="Pfad_4288" data-name="Pfad 4288" d="M23.3,10.407c.273-.075.271-.67.491-.958l.07-.034-.095-.21a6.978,6.978,0,0,1-.466,1.2" transform="translate(4.999 1.975)" fill="#fb6b00"/>
    <path id="Pfad_4289" data-name="Pfad 4289" d="M22.541,10.8c.106-.013-.052.232.147-.2l-.041.028-.106.17" transform="translate(4.836 2.275)" fill="#fb6b00"/>
    <path id="Pfad_4290" data-name="Pfad 4290" d="M22.635,10.643c.1-.181-.13.081,0,0" transform="translate(4.848 2.269)" fill="#fb6b00"/>
    <path id="Pfad_4291" data-name="Pfad 4291" d="M22.293,11.378l.074-.274c-.072.023-.2.225-.188.129-.106.261-.035.239.114.146" transform="translate(4.748 2.382)" fill="#fb6b00"/>
    <path id="Pfad_4292" data-name="Pfad 4292" d="M22.264,11.607c.019-.045.033-.092.049-.138-.032.01-.053.04-.049.138" transform="translate(4.777 2.46)" fill="#fb6b00"/>
    <path id="Pfad_4293" data-name="Pfad 4293" d="M22.4,11.225l-.095.3c.049-.015.111.018.049-.132.041.056.021-.029.046-.163" transform="translate(4.785 2.408)" fill="#fb6b00"/>
    <path id="Pfad_4294" data-name="Pfad 4294" d="M22.476,11.18c.118-.108.245-.266.169.011.243-.471.069-.477-.169-.011" transform="translate(4.822 2.324)" fill="#fb6b00"/>
    <path id="Pfad_4295" data-name="Pfad 4295" d="M23.432,10.419l.145-.163.011-.2c0,.1-.221.34-.155.36" transform="translate(5.025 2.158)" fill="#fb6b00"/>
    <path id="Pfad_4296" data-name="Pfad 4296" d="M21.4,12.481c.028.041.153,0,.213.012l.072-.2c-.085.069-.221.215-.284.187" transform="translate(4.591 2.637)" fill="#fb6b00"/>
    <path id="Pfad_4297" data-name="Pfad 4297" d="M21.592,12.458l-.109.3c.163-.221.16-.284.109-.3" transform="translate(4.609 2.672)" fill="#fb6b00"/>
    <path id="Pfad_4298" data-name="Pfad 4298" d="M22.416,11.816c.051-.169.08-.347.119-.52-.055.2-.1.408-.172.6Z" transform="translate(4.798 2.423)" fill="#fb6b00"/>
    <path id="Pfad_4299" data-name="Pfad 4299" d="M20.827,13.251l.021-.2-.061.343Z" transform="translate(4.46 2.799)" fill="#fb6b00"/>
    <path id="Pfad_4300" data-name="Pfad 4300" d="M20.512,13.748c.01-.157-.225.046-.185-.095a2.158,2.158,0,0,0-.221.531,1.293,1.293,0,0,1,.406-.436" transform="translate(4.314 2.929)" fill="#fb6b00"/>
    <path id="Pfad_4301" data-name="Pfad 4301" d="M20.024,14.362a1.907,1.907,0,0,0,.1-.272,1.049,1.049,0,0,0-.1.272" transform="translate(4.296 3.023)" fill="#fb6b00"/>
    <path id="Pfad_4302" data-name="Pfad 4302" d="M21.255,13.039a.348.348,0,0,0-.254.113l.179-.018.075-.095" transform="translate(4.506 2.797)" fill="#fb6b00"/>
    <path id="Pfad_4303" data-name="Pfad 4303" d="M21.183,13.116h-.006l-.166.2.172-.2" transform="translate(4.508 2.814)" fill="#fb6b00"/>
    <path id="Pfad_4304" data-name="Pfad 4304" d="M21.229,13.019l-.019.024c.018,0,.026,0,.019-.024" transform="translate(4.551 2.793)" fill="#fb6b00"/>
    <path id="Pfad_4305" data-name="Pfad 4305" d="M21.962,12.219c-.043.189-.194.548.1.307,0-.158-.169-.021-.1-.307" transform="translate(4.696 2.621)" fill="#fb6b00"/>
    <path id="Pfad_4306" data-name="Pfad 4306" d="M21.409,13.06c.077-.08.149-.162.217-.248-.032-.015-.1,0-.084-.09-.04.114-.084.228-.134.338" transform="translate(4.593 2.729)" fill="#fb6b00"/>
    <path id="Pfad_4307" data-name="Pfad 4307" d="M21.358,13.153,21.424,13l-.084.09Z" transform="translate(4.579 2.789)" fill="#fb6b00"/>
    <path id="Pfad_4308" data-name="Pfad 4308" d="M20.442,14.038a1.362,1.362,0,0,1-.249.407,2.978,2.978,0,0,0,.391-.413c-.016-.046-.023-.155-.142.006" transform="translate(4.332 2.993)" fill="#fb6b00"/>
    <path id="Pfad_4309" data-name="Pfad 4309" d="M20.774,13.588l-.013.029c.021-.009.033-.018.013-.029" transform="translate(4.454 2.915)" fill="#fb6b00"/>
    <path id="Pfad_4310" data-name="Pfad 4310" d="M19.27,15.446l.036,0-.012-.019Z" transform="translate(4.134 3.308)" fill="#fb6b00"/>
    <path id="Pfad_4311" data-name="Pfad 4311" d="M20.554,14.058a.447.447,0,0,0,.151-.271,3.334,3.334,0,0,1-.188.281c.007.021.015.03.038-.01" transform="translate(4.402 2.958)" fill="#fb6b00"/>
    <path id="Pfad_4312" data-name="Pfad 4312" d="M19.806,14.673a2.289,2.289,0,0,0,.213-.141c-.078.029-.221.1-.213.141" transform="translate(4.249 3.117)" fill="#fb6b00"/>
    <path id="Pfad_4313" data-name="Pfad 4313" d="M20.718,13.629l.009-.021c-.05.019-.036.023-.009.021" transform="translate(4.44 2.919)" fill="#fb6b00"/>
    <path id="Pfad_4314" data-name="Pfad 4314" d="M20.723,13.628a1.009,1.009,0,0,0-.052.2,1.479,1.479,0,0,0,.109-.213.2.2,0,0,1-.057.016" transform="translate(4.435 2.92)" fill="#fb6b00"/>
    <path id="Pfad_4315" data-name="Pfad 4315" d="M19.549,16.391c-.073-.1.1-.451.413-.608.137-.3-.291-.4-.642-.341.033.041.069.073-.1.363.128-.04.6-.438.5-.16-.245.363-.271.236-.46.35.233-.034-.21.555.017.634l.2-.336c.03.018-.022.158.073.1" transform="translate(4.121 3.309)" fill="#fb6b00"/>
    <path id="Pfad_4316" data-name="Pfad 4316" d="M19.717,15.077l.075-.112a1.494,1.494,0,0,1-.421.245c-.1.21-.1.271-.08.308l.442-.488Z" transform="translate(4.137 3.21)" fill="#fb6b00"/>
    <path id="Pfad_4317" data-name="Pfad 4317" d="M20.089,14.635c.033.164-.134.446.1.386.248-.307.095-.282.2-.5-.385.505.062-.186-.291.117a2.879,2.879,0,0,1,.194-.284,3.1,3.1,0,0,1-.257.213l.016-.006v0h0c.03-.01.044-.011.017.007l-.006.012a.128.128,0,0,1,.019.053c-.14.123-.045,0-.019-.053l-.011-.019h0l-.355.531a3.529,3.529,0,0,0,.387-.459" transform="translate(4.227 3.08)" fill="#fb6b00"/>
    <path id="Pfad_4318" data-name="Pfad 4318" d="M22.072,12.837a.031.031,0,0,1-.036,0c-.011.044-.011.063.036,0" transform="translate(4.727 2.754)" fill="#fb6b00"/>
    <path id="Pfad_4319" data-name="Pfad 4319" d="M21.966,13.044a.351.351,0,0,1,.087-.228c.107-.085.051.036.09.056.024-.1.1-.317-.109-.118l-.011.047c-.18.188-.5.358-.5.31a.859.859,0,0,0,.438-.067" transform="translate(4.619 2.718)" fill="#fb6b00"/>
    <path id="Pfad_4320" data-name="Pfad 4320" d="M21.025,13.829l-.274.46L21,14.146l-.062-.032c.206-.223.1-.223.083-.285" transform="translate(4.452 2.967)" fill="#fb6b00"/>
    <path id="Pfad_4321" data-name="Pfad 4321" d="M19.217,15.468l-.056-.143-.06.356Z" transform="translate(4.098 3.287)" fill="#fb6b00"/>
    <path id="Pfad_4322" data-name="Pfad 4322" d="M18.85,15.889l-.072-.1-.069.183Z" transform="translate(4.014 3.387)" fill="#fb6b00"/>
    <path id="Pfad_4323" data-name="Pfad 4323" d="M1.222,3.607l.062-.164a.967.967,0,0,0-.062.164" transform="translate(0.262 0.738)" fill="#fb6b00"/>
    <path id="Pfad_4324" data-name="Pfad 4324" d="M.77,4.5l.045.05C.8,4.489.792,4.459.77,4.5" transform="translate(0.165 0.961)" fill="#fb6b00"/>
    <path id="Pfad_4325" data-name="Pfad 4325" d="M9.4,18.911c-.089-.238-.153-.539-.226-.421l-.039.145a.887.887,0,0,1,.265.277" transform="translate(1.959 3.961)" fill="#fb6b00"/>
    <path id="Pfad_4326" data-name="Pfad 4326" d="M2.626,12.02V12.1l.185.069-.183-.148" transform="translate(0.563 2.578)" fill="#fb6b00"/>
    <path id="Pfad_4327" data-name="Pfad 4327" d="M2.189,12.189l-.08-.312a1.584,1.584,0,0,0,.08.312" transform="translate(0.452 2.548)" fill="#fb6b00"/>
    <path id="Pfad_4328" data-name="Pfad 4328" d="M5.617.286,5.791.107c-.317.075-.163.108-.174.179" transform="translate(1.199 0.023)" fill="#fb6b00"/>
    <path id="Pfad_4329" data-name="Pfad 4329" d="M14.82,20.016a2.3,2.3,0,0,0-.414.272c.225-.1.442-.149.414-.272" transform="translate(3.091 4.294)" fill="#fb6b00"/>
    <path id="Pfad_4330" data-name="Pfad 4330" d="M2.066,4.477c.019-.089.013-.135-.013-.146-.023.091-.024.148.013.146" transform="translate(0.437 0.929)" fill="#fb6b00"/>
    <path id="Pfad_4331" data-name="Pfad 4331" d="M14.061,20.621l.1-.046a2.4,2.4,0,0,1,.321-.335.772.772,0,0,0-.419.381" transform="translate(3.017 4.342)" fill="#fb6b00"/>
    <path id="Pfad_4332" data-name="Pfad 4332" d="M21.329.816l.044.039c.013-.013-.01-.026-.044-.039" transform="translate(4.576 0.175)" fill="#fb6b00"/>
    <path id="Pfad_4333" data-name="Pfad 4333" d="M23.977,5.563a2.275,2.275,0,0,1-.07-.238.765.765,0,0,0,.07.238" transform="translate(5.129 1.142)" fill="#fb6b00"/>
    <path id="Pfad_4334" data-name="Pfad 4334" d="M17.228,17.509c.095-.112.006-.027,0,0" transform="translate(3.696 3.744)" fill="#fb6b00"/>
    <path id="Pfad_4335" data-name="Pfad 4335" d="M17.943,17.375a.086.086,0,0,0,.006.086.108.108,0,0,1-.006-.086" transform="translate(3.848 3.727)" fill="#fb6b00"/>
    <path id="Pfad_4336" data-name="Pfad 4336" d="M13.606,21.858l-.011.009c.051-.01.043-.009.011-.009" transform="translate(2.917 4.689)" fill="#fb6b00"/>
    <path id="Pfad_4337" data-name="Pfad 4337" d="M17.417,17.4a1.3,1.3,0,0,0-.158.107,1.257,1.257,0,0,0,.158-.107" transform="translate(3.703 3.733)" fill="#fb6b00"/>
    <path id="Pfad_4338" data-name="Pfad 4338" d="M17.335,17.4l.1-.083c0-.029-.023-.027-.1.083" transform="translate(3.719 3.712)" fill="#fb6b00"/>
    <path id="Pfad_4339" data-name="Pfad 4339" d="M17.116,17.652a1.508,1.508,0,0,1,.174-.16c-.027.013-.04.017-.038.009l-.136.152" transform="translate(3.672 3.752)" fill="#fb6b00"/>
    <path id="Pfad_4340" data-name="Pfad 4340" d="M12.773,4,12.782,4c.038-.2.022-.14-.009-.006" transform="translate(2.74 0.831)" fill="#fb6b00"/>
    <path id="Pfad_4341" data-name="Pfad 4341" d="M6.305,17.422l.016.009-.011-.019Z" transform="translate(1.353 3.735)" fill="#fb6b00"/>
    <path id="Pfad_4342" data-name="Pfad 4342" d="M5.945,17.166a.56.56,0,0,1,.442.313l.154-.391Z" transform="translate(1.275 3.666)" fill="#fb6b00"/>
    <path id="Pfad_4343" data-name="Pfad 4343" d="M3.393,2.051,3,2.234c.243-.488.607-.647.177-.539.192.325-1.2,1.156-.888,1.5l-.24.153c.051-.06.043-.083.095-.14-.479.3-.018.482-.419,1-.151.179-.283.291-.245.129l-.154.509c-.078.13-.125.067-.047-.064-.114.239-.2.492-.294.738l-.01-.01a4.14,4.14,0,0,1,.034.531c-.12.169-.01-.107-.074-.075-.021.146-.017.3-.024.442C.77,6.561.748,6.181.864,5.9c-.509.279-.035.367-.435,1.189l.028-.425C.174,6.883.189,7.229,0,7.705c.081-.123.488-.915.521-.419a.981.981,0,0,0-.027.568c-.146-.009-.12.249-.123.565L.177,8.4c.075.349.182.317.287.513a.586.586,0,0,1-.239.577c.036.622.194-.451.308.266-.05.525.194.826.447,1.362.03.349-.131-.023-.149.111l.232.247c.017.073-.034.066-.061.061.135.225.176-.034.364.315.239.015.035.859.455,1.211,0,.134-.131,0-.185.063a3.084,3.084,0,0,0,.806.84l.118.464c-.041-.367.323-.074.628.175,0-.14,0-.259,0-.332l.381.457c.015.074-.08.064-.2.022a.676.676,0,0,0,.1.068c.058.213-.1.183-.276.114,0-.081,0-.166,0-.25-.172-.066-.355-.12-.436-.035a.623.623,0,0,1,.142.146c-.046-.018-.083-.024-.091,0s.061.061.152.121l-.115.234.092-.018.332.73a8.737,8.737,0,0,1,1.642,1.212c-.26-.077-.236.119-.392.225.015-.316-.5-.486-.723-.9.119.214.016.222-.044.188.2.2.423.378.639.56-.134.078.016.208.1.418.141-.315.537.363.815.57-.066.081-.2.083-.429-.257.1.5.632.242.772.7-.067-.074-.09-.125-.155-.121.221.119.537.6.381.553L5.8,18.92c.394.538,1.33,1.519,1.593,1.406a1.281,1.281,0,0,1-.352.154l1.432.262c-.231.078-.336.737-.8.421a1.288,1.288,0,0,0,.485.486c-.053-.1.041-.413.159-.324a3.241,3.241,0,0,0,.3.789c-.08-.147.293-.266.464-.08-.066.01-.227.26-.318.219l.686.2c-.153-.068-.223.189-.187.356,0-.094.395.381.54.472l-.141-.242c.486.528.84.138,1.343.629-.111,0-.451.179-.211.451a3.115,3.115,0,0,1,1.654.177l.024.152.435.225a8.165,8.165,0,0,1-1.874-.281c.146.238-.023.137.281.4.044.164-.257-.041-.349-.117l.657.672c.1-.181.675.312.759.16l-.9-.508c.1-.176.821-.046,1.3.408.074.171-.332.194-.366.255a1.429,1.429,0,0,1,.577.384l-.284-.1c.23.3.634.179.849.612.108.108.185.494.283.417a1.133,1.133,0,0,1,.61-.957,5.8,5.8,0,0,1,.53.859c.052.158-.055.211-.2.23s-.322.009-.251.166c.044-.036.227.021.294.044.151.177-.145.106.256.385.108-.175.763.607.209-.058a1.57,1.57,0,0,1,.236.158,4.193,4.193,0,0,0,.534-.381c-.087-.012-.032-.209.039-.4a1.827,1.827,0,0,1,.261-.527c.019.052.123.055.17.053.538-.437.873-.621,1.359-1.048.078,0,.349-.17.311-.013a.845.845,0,0,1,.2-.339c.407-.13-.31.322.053.282-.063-.107.268-.472.428-.72-.191-.077-.508.418-.668.667-.174-.189.011-.721.424-1.263.344-.415.282-.039.324-.13.758-.663.317-.907,1.036-1.358.35-.117.238.221.373.254-.266.353-.55.395-.762.6l.318-.194a1.152,1.152,0,0,1-.395.441c.31-.08,1.241-1.166,1.89-1.619.058-.137.182-.35.057-.313l-.154.192c-.251.069.192-.459-.068-.279a2.493,2.493,0,0,1,.686-.949l.2.066c-.046-.03-.29.141-.34.274.074-.2.675-.339.645-.658l-.318.146a3.036,3.036,0,0,1,.607-1c-.26.012-.049.084-.4.152.372,0-.718.754-.238.652-.387.043-.435.3-.856.43.052.034.18-.017-.08.208a.314.314,0,0,1-.013.092l-.018.013.018-.009c0,.017,0,.019.006,0a.39.39,0,0,1,.188-.061c-.017.221-.4.613-.48.791-.166.124.011-.109-.115-.077l-.119.271c-.115-.078-.544.22-.26-.174l-.31.3a1.726,1.726,0,0,0-.617.538c-.168.119-.267.463-.214.264l-.431.527-.028-.021c-.492.451-.855,1.1-1.583,1.436a2.907,2.907,0,0,1-.6.582l-.132-.039c-.187.223-.73.477-.742.652-.168-.08-.169-.089-.22-.018-.038,0-.107-.01-.13-.062l-.1.118a7.455,7.455,0,0,0-.922-.625l-.066.121c-.361-.152-.679-.687-1.132-1.065.064-.013.169.095.23.188-.336-.689-1.272-.81-1.6-1.409a.6.6,0,0,1-.287-.261.116.116,0,0,0,.034.022l-.047-.045-.113-.2a.811.811,0,0,0,.086.181,3.34,3.34,0,0,0-.395-.3l.043-.16-.033-.027c-.094-.162-.152-.049-.158.1a1.19,1.19,0,0,0-.237-.1c.057-.271-.4-.272-.374-.59-.181.009-.717-.581-.969-.465.018-.028-.009-.078.063-.01a1.16,1.16,0,0,0-.429-.409l.072-.192-.494-.141c-.1-.276-.132-.4.153-.306-.6-.322-.418-.327-.953-.582l.107-.062c-.138-.141-.472-.264-.481-.418-.118-.482-1.428-1.655-1.925-2.694-.148.387-.193-.508-.44-.379.027-.1-.03-.253.138-.152-.407-.412-.374-.777-.791-.97.033-.1.17.033.179-.043-.04-.028-.162-.109-.153-.186s.1.03.186.084c-.336-.469-.587-.379-.815-.284-.072-.307-.141-.434-.389-.537.017-.13,0-.321.208-.021-.091-.185-.511-1.133-.694-1.062a.7.7,0,0,0-.157-.3c-.172-.423-.172-.465-.369-.867l.021.126c-.285-.073-.2-.322-.367-.644h.026c-.064-.84-.176-.321-.214-1.148l-.129.077c-.163,0-.169-.187-.164-.423a1.524,1.524,0,0,0,.024-.748L1.468,9.4c-.132-.253.347-.738.366-.967.024-.052.045.083.078.155.168-.622-.2-.08-.234-.56.109-.08.249.125.3-.183.087-.13-.214-.962.118-1.336-.1.069-.2.143-.2-.091.081-.351.589-.757.515-1.131.04-.029.066-.033.084-.026a10.113,10.113,0,0,0,.332-.993c.273.044.468-.308.683-.629s.442-.6.588-.428A6.421,6.421,0,0,1,4.715,2.7l.009.051a1.5,1.5,0,0,0,.664-.615c.12-.029.062.052.064.078a3.207,3.207,0,0,0,1.334-.663l.1.131c.158-.142,1.1,0,1.819-.155a.139.139,0,0,1-.081.068c.877-.192,1.83.672,2.264.271.186.027.384.034.57.078-.664-.313.2-.187-.05-.38.293.089.622.479.285.344l-.039-.049c-.119.1.075.222.284.338.2.134.413.268.353.345a5.514,5.514,0,0,1,1.519,1.394,3.985,3.985,0,0,1,.3.423,4.219,4.219,0,0,1,.43.746c.27.555.536,1.119.77,1.651l-.07-.68c.092.2.186.438.279.612l.016-.034c.063-.035.106.086-.013.417-.024-.006-.06-.1-.1-.188a.955.955,0,0,0,.1.3,4.763,4.763,0,0,0,.266-1.059c.225-.377.22-.2.136.1s-.2.679-.124.519l.206-.493-.057.058a4.147,4.147,0,0,1,.425-1.261c.222-.3.185-.046.271-.186.011.017.043-.034.135-.225a5.754,5.754,0,0,1,.431-.547c-.1.017-.185.043-.278.068.084-.261.364-.409.029-.338A4.464,4.464,0,0,0,18,3.052a3.7,3.7,0,0,1,.95-.634,2.153,2.153,0,0,1,1-.6c-.117,0-.256-.158.128-.266-.006.425.732-.062,1.1.193-.307-.163,1.046-.2.6-.412.323,0,.033.146.278.227a5.328,5.328,0,0,1,2.507.369c.03-.045-.092-.177.121-.183l.364.418c.172.041.277-.211.5.1-.022-.061-.057-.152.062-.114A12.142,12.142,0,0,1,27.75,3.9a4.05,4.05,0,0,1,1.144,2.5c.011-.26.086-.115.142.066-.007-.126.126-.035.189-.079,0,.274.013.537-.015.8.227.106.131.813.306.883l-.046-.247c.259.323.458-.521.734-.525-.3-.341.174-1.176-.435-1.7,0-.163.131.086.168-.013a1.194,1.194,0,0,1-.4-.669l.046.027a11.26,11.26,0,0,0-1.508-2.361l-.033.165a1.415,1.415,0,0,1-.261-.374c-.369-.041.542.51.17.5-.029-.487-1.411-1.165-1.471-1.532-.357-.21.027.2-.334,0l-.057-.128-.145.06c-.231-.134-.308-.3-.288-.369a1.5,1.5,0,0,0,.245.086c-.272-.27-.949-.33-1.047-.408l.36.187a6.865,6.865,0,0,0-3.537-.3l.086.058C20.98.746,21.1.512,20.245.788l.027-.024a2.332,2.332,0,0,1-.6.294c.185-.157-.454.01-.209-.182-.768.481-.372.273-.769.759L18.523,1.6a1.161,1.161,0,0,1-.449.5c.24-.284-.329.019-.066-.317-.944.34-.918,1.06-1.478,1.1-.072.52.695-.453.576-.232.211-.06-.094.407-.3.591a1.176,1.176,0,0,1-.449.206,1.328,1.328,0,0,0-.3.177c-.1.078-.136.08-.189.166.019-.028.006-.049.024-.077-.1.021-.092.333-.215.316,0,.355-.091.158-.069.6.052-.163.118-.308.172-.448a8.99,8.99,0,0,1-.257,1.02.9.9,0,0,1-.114-.3c.022-.062.081-.022.114-.078-.044-.183-.1-.1-.141-.328.032-.2.08-.081.138,0a1.464,1.464,0,0,0,.12-.452c-.05-.112-.123.621-.1.051-.007.1-.012.174-.017.23-.026.121-.063-.03-.094-.126s-.06-.182-.16-.141l.063-.164a.112.112,0,0,1-.128-.05.4.4,0,0,0,.145-.108c-.07.033-.095-.081-.1-.158-.016-.058.024-.047-.034-.149a.918.918,0,0,0-.189-.243c.284.378.2.34.163.384s-.124.047-.111.154a.587.587,0,0,1-.169-.164.914.914,0,0,1-.12-.187.753.753,0,0,1-.09-.3,1.09,1.09,0,0,0-.521-.813c.136.1.389.472.155.35a2.562,2.562,0,0,1-.384-.566c-.645-.46.006.185-.316.051-.107-.294-.346-.179-.651-.316l.079-.123c-.714-.527-.341.114-.98-.333l.392-.036-.4-.134.151-.112A3.177,3.177,0,0,1,11.232.69c.06.142-.135.21-.505.126-.231-.151.18-.1-.356-.216a.394.394,0,0,1,.5.058c.036-.039.146-.056.185-.094a2.4,2.4,0,0,0-.9-.248.588.588,0,0,1,.209.077C10.083.4,9.8.435,9.534.457c-.117-.074-.015-.1.091-.13C9.461.311,9.34.383,9.1.376c.07-.114.062-.239.418-.271L8.728.187c-.05-.055-.4-.131-.3-.179C7.972-.058,7.371.3,6.8.339a.49.49,0,0,1-.192.109A3,3,0,0,0,5.056.985,3.778,3.778,0,0,0,4.635.957c-.419.283.553.006-.132.47-.457.361-.279-.04-.487.019a2.663,2.663,0,0,1-.97.941,2.918,2.918,0,0,1,.349-.336M.525,7.275c-.016-.119-.061-.369.039-.438C.706,7,.6,7.083.525,7.275M3.4,15.443c-.086-.04-.136-.158-.169-.3a.9.9,0,0,1,.169.3m16.475,7.026,0,.013c-.21.126-.134.084,0-.013m.4-.3c.022-.05,0-.062-.024-.061,0,.05-.077.13-.174.213.052,0,.117-.024.2-.152M16.654,4.733l-.1.1c.138-.332.118-.219.1-.1" transform="translate(0 0)" fill="#fb6b00"/>
    <path id="Pfad_4344" data-name="Pfad 4344" d="M2.231,12.139a.136.136,0,0,1,.045-.081c-.043-.026-.068-.012-.045.081" transform="translate(0.477 2.584)" fill="#fb6b00"/>
    <path id="Pfad_4345" data-name="Pfad 4345" d="M5.586.287l.018,0a.06.06,0,0,0,.013-.03Z" transform="translate(1.198 0.054)" fill="#fb6b00"/>
    <path id="Pfad_4346" data-name="Pfad 4346" d="M12.151,22.707a.939.939,0,0,1-.192-.247c-.028.024.009.094.192.247" transform="translate(2.564 4.818)" fill="#fb6b00"/>
    <path id="Pfad_4347" data-name="Pfad 4347" d="M18.086,16.565l-.193.254a.649.649,0,0,1,.234-.172c-.03-.018-.108-.009-.041-.081" transform="translate(3.839 3.554)" fill="#fb6b00"/>
    <path id="Pfad_4348" data-name="Pfad 4348" d="M20.141,15.4c.017-.047.063-.077.079-.124l-.061-.035c-.125.155-.174.3-.018.159" transform="translate(4.3 3.27)" fill="#fb6b00"/>
    <path id="Pfad_4349" data-name="Pfad 4349" d="M18.51,16.72c.107.066.211-.111.344-.291l-.027.029c-.083-.165-.2.049-.317.262" transform="translate(3.971 3.518)" fill="#fb6b00"/>
    <path id="Pfad_4350" data-name="Pfad 4350" d="M18.819,16.42a1.188,1.188,0,0,1,.136-.154c-.033-.067-.067.052-.136.154" transform="translate(4.038 3.485)" fill="#fb6b00"/>
    <path id="Pfad_4351" data-name="Pfad 4351" d="M17.037,17.873c.1-.052-.064-.158.013-.164-.028-.193-.364.628-.013.164" transform="translate(3.621 3.793)" fill="#fb6b00"/>
    <path id="Pfad_4352" data-name="Pfad 4352" d="M18.884,16.789l-.165-.044,0,.176Z" transform="translate(4.016 3.592)" fill="#fb6b00"/>
    <path id="Pfad_4353" data-name="Pfad 4353" d="M17.784,17.83l.278-.228c-.022-.013,0-.057.029-.106-.157.155-.345.308-.307.334" transform="translate(3.814 3.753)" fill="#fb6b00"/>
    <path id="Pfad_4354" data-name="Pfad 4354" d="M18.036,17.537a.838.838,0,0,0,.181-.225,2.122,2.122,0,0,0-.181.225" transform="translate(3.87 3.714)" fill="#fb6b00"/>
    <path id="Pfad_4355" data-name="Pfad 4355" d="M18.657,17.1l-.1.055-.185.175Z" transform="translate(3.943 3.669)" fill="#fb6b00"/>
    <path id="Pfad_4356" data-name="Pfad 4356" d="M15.548,19.969l-.257.3c.006.064.107.016.2-.1.045-.09.135-.205.057-.2" transform="translate(3.281 4.284)" fill="#fb6b00"/>
    <path id="Pfad_4357" data-name="Pfad 4357" d="M16.481,19.547a.359.359,0,0,1-.205.035l.121.145Z" transform="translate(3.492 4.193)" fill="#fb6b00"/>
    <path id="Pfad_4358" data-name="Pfad 4358" d="M15.809,20.236c.009.067-.315.5.043.151-.007-.066.249-.368-.043-.151" transform="translate(3.365 4.324)" fill="#fb6b00"/>
    <path id="Pfad_4359" data-name="Pfad 4359" d="M11.9,21.979l.079.061.182-.25Z" transform="translate(2.553 4.674)" fill="#fb6b00"/>
    <path id="Pfad_4360" data-name="Pfad 4360" d="M8.253,19.6c.29.377.21-.063.455.3.13.022-.2-.293-.075-.262-.257-.137-.335-.271-.38-.033" transform="translate(1.771 4.178)" fill="#fb6b00"/>
    <path id="Pfad_4361" data-name="Pfad 4361" d="M8.566,19.609c.041.022.086.044.136.064a.577.577,0,0,0-.136-.064" transform="translate(1.838 4.207)" fill="#fb6b00"/>
    <path id="Pfad_4362" data-name="Pfad 4362" d="M23.992,6.349c-.006.091-.032.182-.046.272l.095-.181a.6.6,0,0,0-.049-.091" transform="translate(5.138 1.362)" fill="#fb6b00"/>
    <path id="Pfad_4363" data-name="Pfad 4363" d="M24.232,6.767l-.194.07L24.226,7c-.012-.063-.036-.183.006-.232" transform="translate(5.157 1.451)" fill="#fb6b00"/>
    <path id="Pfad_4364" data-name="Pfad 4364" d="M.042,6.764l.046.028c.053-.051.061-.13.074-.287Z" transform="translate(0.009 1.395)" fill="#fb6b00"/>
    <path id="Pfad_4365" data-name="Pfad 4365" d="M1.276,3.2l-.045.064.226-.026Z" transform="translate(0.264 0.687)" fill="#fb6b00"/>
    <path id="Pfad_4366" data-name="Pfad 4366" d="M3.475.881c-.138.08-.274.215-.413.3.276-.217.565-.128.413-.3" transform="translate(0.657 0.189)" fill="#fb6b00"/>
    <path id="Pfad_4367" data-name="Pfad 4367" d="M16.385,8.447c.022-.006-.073-.091-.087-.109,0,.044.112.132.087.109" transform="translate(3.497 1.789)" fill="#fb6b00"/>
    <path id="Pfad_4368" data-name="Pfad 4368" d="M16.347,8.8l-.033-.041.055.125Z" transform="translate(3.5 1.879)" fill="#fb6b00"/>
    <path id="Pfad_4369" data-name="Pfad 4369" d="M16.156,9.012c.175.132.056-.106.151-.091l.041.028-.106-.141c-.028.068-.01.213-.086.2" transform="translate(3.466 1.889)" fill="#fb6b00"/>
    <path id="Pfad_4370" data-name="Pfad 4370" d="M15.785,8.8c.067.052.026.078.046-.01l-.019-.01a.065.065,0,0,1-.027.019" transform="translate(3.387 1.884)" fill="#fb6b00"/>
    <path id="Pfad_4371" data-name="Pfad 4371" d="M15.81,8.789c.019-.028-.066-.035,0,0" transform="translate(3.387 1.88)" fill="#fb6b00"/>
    <path id="Pfad_4372" data-name="Pfad 4372" d="M15.765,8.926l-.022-.084c-.043-.029-.078-.01-.094-.045,0,.061.039.089.115.129" transform="translate(3.358 1.887)" fill="#fb6b00"/>
    <path id="Pfad_4373" data-name="Pfad 4373" d="M15.817,9.027l-.006-.039c-.018-.012-.028-.012.006.039" transform="translate(3.389 1.927)" fill="#fb6b00"/>
    <path id="Pfad_4374" data-name="Pfad 4374" d="M15.8,8.92,15.809,9c.029.021.08.069,0-.033.043.049.006,0-.012-.049" transform="translate(3.389 1.913)" fill="#fb6b00"/>
    <path id="Pfad_4375" data-name="Pfad 4375" d="M15.832,8.929c.05.016.095.015.115.1.038-.08-.078-.18-.115-.1" transform="translate(3.397 1.909)" fill="#fb6b00"/>
    <path id="Pfad_4376" data-name="Pfad 4376" d="M16.279,9.125l.068.022-.032-.072c.016.035-.086,0-.036.05" transform="translate(3.49 1.947)" fill="#fb6b00"/>
    <path id="Pfad_4377" data-name="Pfad 4377" d="M15.521,9c.029.034.1.077.141.115l-.015-.06A.235.235,0,0,1,15.521,9" transform="translate(3.33 1.93)" fill="#fb6b00"/>
    <path id="Pfad_4378" data-name="Pfad 4378" d="M15.637,9.092l.022.09c.038-.023.016-.056-.022-.09" transform="translate(3.355 1.95)" fill="#fb6b00"/>
    <path id="Pfad_4379" data-name="Pfad 4379" d="M15.959,9.195,15.9,9.021l.051.186Z" transform="translate(3.411 1.935)" fill="#fb6b00"/>
    <path id="Pfad_4380" data-name="Pfad 4380" d="M15.419,9.118l-.056-.095.079.148Z" transform="translate(3.296 1.936)" fill="#fb6b00"/>
    <path id="Pfad_4381" data-name="Pfad 4381" d="M15.376,9.209c-.049-.077-.125-.086-.149-.14-.012.035.022.108.052.175-.009-.046.019-.06.1-.035" transform="translate(3.266 1.945)" fill="#fb6b00"/>
    <path id="Pfad_4382" data-name="Pfad 4382" d="M15.308,9.314a.55.55,0,0,0-.04-.1.33.33,0,0,0,.04.1" transform="translate(3.276 1.976)" fill="#fb6b00"/>
    <path id="Pfad_4383" data-name="Pfad 4383" d="M15.614,9.213a.286.286,0,0,0-.12-.066l.106.078Z" transform="translate(3.324 1.962)" fill="#fb6b00"/>
    <path id="Pfad_4384" data-name="Pfad 4384" d="M15.591,9.213l0,0-.034.024.038-.022" transform="translate(3.337 1.976)" fill="#fb6b00"/>
    <path id="Pfad_4385" data-name="Pfad 4385" d="M15.6,9.2l0,0c.01.009.015.011,0,0" transform="translate(3.345 1.973)" fill="#fb6b00"/>
    <path id="Pfad_4386" data-name="Pfad 4386" d="M15.806,9.17c.032.072.044.169.163.206-.049-.078-.115-.1-.163-.206" transform="translate(3.391 1.967)" fill="#fb6b00"/>
    <path id="Pfad_4387" data-name="Pfad 4387" d="M15.71,9.3l.057-.016a.335.335,0,0,1-.083-.087Z" transform="translate(3.365 1.972)" fill="#fb6b00"/>
    <path id="Pfad_4388" data-name="Pfad 4388" d="M15.72,9.327l-.011-.047-.022.006Z" transform="translate(3.366 1.99)" fill="#fb6b00"/>
    <path id="Pfad_4389" data-name="Pfad 4389" d="M15.423,9.316a.094.094,0,0,1,0,.1.133.133,0,0,0,.09-.035c-.026-.032-.068-.092-.087-.067" transform="translate(3.309 1.997)" fill="#fb6b00"/>
    <path id="Pfad_4390" data-name="Pfad 4390" d="M15.508,9.272v.009c.011.006.015.006,0-.009" transform="translate(3.327 1.989)" fill="#fb6b00"/>
    <path id="Pfad_4391" data-name="Pfad 4391" d="M15.263,9.557l.019.013-.015-.016Z" transform="translate(3.275 2.049)" fill="#fb6b00"/>
    <path id="Pfad_4392" data-name="Pfad 4392" d="M15.516,9.393c.034,0,.021-.029,0-.067a.1.1,0,0,1-.022.053c.012.015.021.023.021.013" transform="translate(3.324 2)" fill="#fb6b00"/>
    <path id="Pfad_4393" data-name="Pfad 4393" d="M15.293,9.377a.4.4,0,0,0,.078.023c-.038-.021-.1-.05-.078-.023" transform="translate(3.28 2.009)" fill="#fb6b00"/>
    <path id="Pfad_4394" data-name="Pfad 4394" d="M15.487,9.265V9.259c-.026-.015-.015-.006,0,.006" transform="translate(3.319 1.985)" fill="#fb6b00"/>
    <path id="Pfad_4395" data-name="Pfad 4395" d="M15.484,9.263a.454.454,0,0,0,.035.077.13.13,0,0,0,0-.056c-.007-.006-.019-.013-.03-.021" transform="translate(3.322 1.987)" fill="#fb6b00"/>
    <path id="Pfad_4396" data-name="Pfad 4396" d="M15.79,10.2c-.083-.087-.12-.208.007-.152a1.879,1.879,0,0,0-.519-.481.257.257,0,0,1,.085.158c.058.034.188.029.234.136,0,.092-.069.01-.137-.012.126.086.094.215.26.36l-.013-.1c.026.023.049.077.083.087" transform="translate(3.278 2.052)" fill="#fb6b00"/>
    <path id="Pfad_4397" data-name="Pfad 4397" d="M15.372,9.534l0-.026a.416.416,0,0,1-.166-.064.3.3,0,0,0,.07.134l.085-.062Z" transform="translate(3.263 2.026)" fill="#fb6b00"/>
    <path id="Pfad_4398" data-name="Pfad 4398" d="M15.413,9.452c.081.1.085.179.206.257.038-.05-.046-.108-.061-.174-.047.092-.032-.072-.135-.074a.12.12,0,0,1,.013-.062.3.3,0,0,1-.078-.006l.007,0h0c.015.009.022.015.012.011v0l.033.039c-.04,0-.028-.022-.033-.039L15.368,9.4h0l-.021.121c.028,0,.045-.023.067-.067" transform="translate(3.292 2.015)" fill="#fb6b00"/>
    <path id="Pfad_4399" data-name="Pfad 4399" d="M16.077,9.537a.131.131,0,0,1-.024-.019c.007.016.013.026.024.019" transform="translate(3.444 2.042)" fill="#fb6b00"/>
    <path id="Pfad_4400" data-name="Pfad 4400" d="M16.049,9.545c-.007-.018-.04-.06-.015-.067.043.013.045.045.075.074-.015-.034-.032-.1-.107-.114l.007.017a.564.564,0,0,1-.22-.1,2.357,2.357,0,0,0,.259.189" transform="translate(3.388 2.007)" fill="#fb6b00"/>
    <path id="Pfad_4401" data-name="Pfad 4401" d="M15.722,9.5l-.013.1.111.05-.05-.046c.052-.015-.015-.067-.047-.108" transform="translate(3.37 2.037)" fill="#fb6b00"/>
    <path id="Pfad_4402" data-name="Pfad 4402" d="M15.235,9.542l-.09-.106.1.172Z" transform="translate(3.249 2.024)" fill="#fb6b00"/>
    <path id="Pfad_4403" data-name="Pfad 4403" d="M15.181,9.612,15.1,9.524l.032.07Z" transform="translate(3.239 2.043)" fill="#fb6b00"/>
    <path id="Pfad_4404" data-name="Pfad 4404" d="M12.5,14l.007.041A.109.109,0,0,0,12.5,14" transform="translate(2.682 3.003)" fill="#fb6b00"/>
    <path id="Pfad_4405" data-name="Pfad 4405" d="M12.616,13.907l-.039-.045c.017.029.032.049.039.045" transform="translate(2.698 2.974)" fill="#fb6b00"/>
    <path id="Pfad_4406" data-name="Pfad 4406" d="M13.67,11.158c-.1-.055-.255-.149-.157-.057l.1.086c0-.035.024-.038.056-.029" transform="translate(2.892 2.373)" fill="#fb6b00"/>
    <path id="Pfad_4407" data-name="Pfad 4407" d="M13.048,12.667l.035.021-.072-.106Z" transform="translate(2.792 2.699)" fill="#fb6b00"/>
    <path id="Pfad_4408" data-name="Pfad 4408" d="M13.362,12.989l-.094-.027a.3.3,0,0,0,.094.027" transform="translate(2.847 2.781)" fill="#fb6b00"/>
    <path id="Pfad_4409" data-name="Pfad 4409" d="M11.79,14.871l.013.176c.058-.06.007-.1-.013-.176" transform="translate(2.53 3.19)" fill="#fb6b00"/>
    <path id="Pfad_4410" data-name="Pfad 4410" d="M14.574,10.267a.159.159,0,0,0-.111,0c.08.028.181.086.111,0" transform="translate(3.103 2.2)" fill="#fb6b00"/>
    <path id="Pfad_4411" data-name="Pfad 4411" d="M11.728,13.143a.137.137,0,0,0,.043.072.12.12,0,0,0-.043-.072" transform="translate(2.516 2.819)" fill="#fb6b00"/>
    <path id="Pfad_4412" data-name="Pfad 4412" d="M14.415,10.328l.033.011c0-.032,0-.061.029-.074-.058-.021-.106-.023-.062.063" transform="translate(3.089 2.199)" fill="#fb6b00"/>
    <path id="Pfad_4413" data-name="Pfad 4413" d="M9.055,13.278l.006-.017c-.013.012-.006.017-.006.017" transform="translate(1.942 2.845)" fill="#fb6b00"/>
    <path id="Pfad_4414" data-name="Pfad 4414" d="M9.237,11.91a.077.077,0,0,1,.036.022c0-.011-.009-.019-.036-.022" transform="translate(1.982 2.555)" fill="#fb6b00"/>
    <path id="Pfad_4415" data-name="Pfad 4415" d="M14.881,9.816c.01-.022-.007-.013,0,0" transform="translate(3.192 2.103)" fill="#fb6b00"/>
    <path id="Pfad_4416" data-name="Pfad 4416" d="M15.249,10.053a.244.244,0,0,0,.039.052.362.362,0,0,1-.039-.052" transform="translate(3.272 2.156)" fill="#fb6b00"/>
    <path id="Pfad_4417" data-name="Pfad 4417" d="M14.757,10.925h0c.023.013.018.011,0,0" transform="translate(3.166 2.344)" fill="#fb6b00"/>
    <path id="Pfad_4418" data-name="Pfad 4418" d="M14.945,9.83a.143.143,0,0,0-.049-.007.145.145,0,0,0,.049.007" transform="translate(3.196 2.107)" fill="#fb6b00"/>
    <path id="Pfad_4419" data-name="Pfad 4419" d="M14.9,9.8l.023,0c-.013-.018-.026-.026-.023,0" transform="translate(3.196 2.098)" fill="#fb6b00"/>
    <path id="Pfad_4420" data-name="Pfad 4420" d="M14.867,9.842a.049.049,0,0,1,.035-.017.06.06,0,0,1-.018-.011l-.017.028" transform="translate(3.19 2.105)" fill="#fb6b00"/>
    <path id="Pfad_4421" data-name="Pfad 4421" d="M10.389,14.2l0-.015c-.055.022-.04.024,0,.015" transform="translate(2.222 3.042)" fill="#fb6b00"/>
    <path id="Pfad_4422" data-name="Pfad 4422" d="M14.089,12.285l0-.006h-.006Z" transform="translate(3.021 2.634)" fill="#fb6b00"/>
    <path id="Pfad_4423" data-name="Pfad 4423" d="M14.151,12.456c-.091-.141-.063-.141-.019-.135l-.288-.249Z" transform="translate(2.97 2.59)" fill="#fb6b00"/>
    <path id="Pfad_4424" data-name="Pfad 4424" d="M13.065,15.265c.045.01.084.027.126.04.1.171-.047.228.153.264-.268-.315.132-.193-.149-.493l.089.034c-.011,0,.006.023,0,.028.192.087-.172-.25-.063-.276a.131.131,0,0,1,.123.075l-.019-.124c.021-.01.067.045.046.055l.057-.1.007.01a1.789,1.789,0,0,1-.1-.2c.062.022.021.041.062.073l-.027-.115c.094.058.13.168.089.187.333.25-.036-.109.222-.028l0,.078c.193.14.165.046.316.1-.066-.044-.355-.166-.379-.287.035.009.063,0,.03-.084.1.1.1.053.129.016l.136.14c-.006-.074-.079-.141-.12-.223.051-.024.166.074.265.155.083-.039-.213-.129-.166-.227.1,0,.083-.089.061-.232.083.012.078.09.13.117L14,14.109c.011,0,.041.032.057.05-.016-.069-.135-.14-.13-.219-.141-.163.306.136.186-.087.051.027.078.09.135.14a1.14,1.14,0,0,0-.115-.352l.14.041a.688.688,0,0,1-.274-.377l-.146-.083-.009-.138a.47.47,0,0,1,.118.136l-.021-.045a.525.525,0,0,1,.2.213l-.108-.062a1.72,1.72,0,0,0,.228.284.114.114,0,0,1-.016-.058.327.327,0,0,0,.052.062c.017.012-.007-.026-.032-.07l.168.137-.057-.064.181.012c-.094-.215-.267-.5-.234-.655a2.119,2.119,0,0,0,.31.323c-.168-.114-.015.135-.094.155.041-.011.1.058.114.086l-.039-.216c.107.111.1.062.169.084-.233-.2-.077-.209-.107-.311.074.069.14.152.078.179.211.113-.189-.316,0-.226-.01.012-.027.007.006.049-.039-.09.074-.1.123-.023l-.01.012a.247.247,0,0,0,.047-.409l.243.271L14.67,12.2c.146.168.562.5.591.646.039,0,.086.01.067-.081a1.029,1.029,0,0,1-.254-.228,1.807,1.807,0,0,0,.325.159c-.051-.017-.277-.282-.242-.3.033.041.245.24.261.276l-.174-.31a1.114,1.114,0,0,0,.285.26c-.055-.04.064-.055.058-.1L15.5,12.5c.114-.04-.264-.415-.174-.48.04.06.284.33.353.321a4.258,4.258,0,0,1-.543-.837l.084.057-.028-.132c.153.219.453.7.556.9.085.027.091.075.129.026a.125.125,0,0,1,.068.141l.143-.058c-.149-.14-.068-.222-.192-.339l.04.26c-.148-.14-.346-.474-.249-.52a2.718,2.718,0,0,1,.293.317c-.04-.058-.027-.163.015-.134l.047.108c.094.013-.126-.257.06-.168.026-.007.234.137.152.049a6.78,6.78,0,0,1-.811-.783,1.788,1.788,0,0,1,.344.134c.157.1.267.349.4.436a.516.516,0,0,1-.083-.126c.052.017.115.13.136.074-.141-.153.089-.064-.107-.142,0-.078.069-.009.107-.058a1.091,1.091,0,0,1-.288-.44.663.663,0,0,0,.118.1c.089-.062.2-.036.268-.106.041.029.118.038.166.115-.016-.035-.056-.095-.038-.12.169.085-.029.068.155.188-.083-.087-.061-.174-.083-.257-.142-.121-.1.046-.075.13a1.087,1.087,0,0,1-.327-.582c.013-.1.142.091.126.056.142-.079-.222-.411,0-.37.152.079.231.227.322.3,0,.092-.146,0-.174.038l.095.015c.023.053.019.114-.03.1.134.073.205-.166.386-.155-.024-.053-.038-.12-.1-.154l-.01.044c-.118-.069-.079-.18-.157-.189-.029-.1-.091-.244.012-.243l.141.123c-.039-.038-.112-.045-.085.009-.038-.079.255.1.107-.095L16.654,10c-.03-.1-.125-.287-.039-.29-.149-.109,0,.026-.179-.095.216.162-.124.107.12.261-.21-.143-.132-.017-.326-.125.045.043.1.068.039.084.011.016.023.035.03.047h-.006l.007,0c0,.007.006.009,0,0a.313.313,0,0,1,.085.047c.081.118.018.175.05.247-.043,0-.04-.058-.1-.092l.047.107c-.1-.094-.22-.1-.223-.21l-.052.044c-.081-.027-.142-.01-.125.055-.043,0,.051.164,0,.068l-.016.135-.024-.023c-.086.061.009.311-.25.221,0,.049,0,.1-.064.118l-.091-.075c0,.061-.18.012-.106.113-.259-.191-.2.1-.3.12l.107.112c-.045.032-.051.1-.055.191l.1.094c.039.12-.174.038-.23.113-.032-.041-.006-.049.028-.038-.3-.14-.006.322-.234.234.017.052-.007.053-.044.041v-.01l-.009.006-.075-.027a.383.383,0,0,0,.073.032.137.137,0,0,0-.017.092l-.112-.095v.007c-.058-.018.033.064.12.132a.392.392,0,0,0,.036.089c-.183-.151,0,.109-.2-.047.073.1-.036.166.136.361-.024-.023-.043-.029-.033-.041-.043,0-.086,0-.055.075l-.141-.123.128.226a.416.416,0,0,1-.24-.215c.084.227,0,.117.094.332l-.081-.089c-.018.026.061.174-.023.117-.21-.113-.262.219-.537.193.274.226-.17-.055.018.145-.066-.052-.117-.068-.148-.14-.006.121-.189,0-.07.209-.067-.052-.073-.1-.114-.129.007.018.032.072-.011.044s-.04-.06-.056-.1c-.055.075.12.265.287.441-.113-.049-.119-.021-.03.115-.067-.045-.145-.084-.125-.145-.03.015-.22.057-.085.2-.043-.028-.043.021-.033.043-.058.044-.075.035-.113.1l.036.009c.146.186,0,.079-.026.138l-.016-.018c-.211-.027.017.1-.21.052l.108.1c.213.23-.211-.05-.18.089l.078.039c.047.1-.383-.22-.438-.219-.026-.013-.022-.041-.027-.064-.206-.055.125.145.1.233-.083-.062-.171-.2-.223-.174-.078-.04.126.346-.066.259.067.045.135.09.151.158-.021.061-.321-.1-.181.111a.2.2,0,0,1-.051-.036c.015.077-.024.176.052.29-.384-.327-.018.366-.346.036a.455.455,0,0,0-.041.077l-.029-.038c-.049,0,.009.106.056.216a.278.278,0,0,1-.057-.084c-.1-.03-.079-.026-.034.256l-.066-.147c.012.112-.145-.189-.137.051,0-.021-.007-.058-.01-.085-.035.272-.121-.389-.124.205l0,.1a1.186,1.186,0,0,1-.045.145c.06.12-.022.316,0,.468-.038.007-.066-.3-.028-.3l0,.043c.032-.372-.069-.211-.038-.455-.107-.087-.136-.34-.188-.409l-.115.2-.027-.044c.022-.051.1-.151.108-.125.067-.111-.095.055-.13.087.017-.109.182-.183.171-.2h-.023l-.015.022c-.073.056-.132.131-.163.086,0-.061.083-.112.077-.129.012-.012.013-.021-.012-.023l-.055-.08-.1.151c-.091.032-.057-.07-.166.1.171-.262-.175-.33-.136-.426-.131.049-.171.006-.213-.057-.012.039-.145.186-.171.125.3-.272.044-.206.215-.449-.106.17-.16-.092-.3.153-.013-.06.106-.109.145-.205-.2.023-.121-.266-.267-.338-.04.036-.079.112-.159.145l.132-.245c-.04,0-.238.2-.147.028-.026.036-.066.094-.092.091-.028-.4-.585-.285-.457-.847-.044.1-.07.09-.095.07,0,.032-.094.092-.142.147l.051-.233c-.158.125-.107-.087-.251.039l.053,0c-.2.123-.3.411-.515.61.225-.138-.157.383.174.192-.027.058-.079.053-.119.109.106-.07.146-.067.146.012l-.026.017c.132.09.094.225.162.408l.092-.111c.013.04-.013.078-.026.117.185-.124-.067-.085.131-.227-.171.243.187.194-.024.453.04.043.106-.13.146-.087l-.052.075.092-.072c.013.04-.052.134-.106.189,0-.013-.033,0-.045-.007-.04.111.125.074.113.111v-.079c.172.053.227.276.466.256l.04-.057c.172,0,.013.12.147.17l-.016.009c.067-.029.115-.029.135,0-.079.033-.066.153-.158.185.186,0,.119-.03.357-.148l-.066.094c.092-.052.132-.089.2-.063-.106.03-.092.151-.225.2-.078.27.318-.034.108.265.265-.176.039-.205.111-.227.051-.094.2-.129.209-.077.027.036-.23.334-.148.407-.006-.009-.023.007-.03,0-.028.085.129-.023.1.13.154-.112.063.079.223-.1l-.134-.055c.1.016.322-.165.318.024a.338.338,0,0,1-.135.074c-.016.085.077.01.062.1-.143.2-.149-.074-.332,0-.03.113.234-.012.041.163.243-.225.1.16.316.017l-.078.126c.026-.007.084-.044.1-.018l-.132.131c.142-.083.074.271.183.257-.147-.14.038-.206.027-.367.227-.046-.058.475.175.61-.035-.006-.075-.2-.013-.23a.962.962,0,0,1,.064.291c.141.1.017-.193.094-.242,0,.25.077-.024.134-.047l-.026.182c.125.257.079-.352.177-.094l-.07.216.069,0-.028.209c.085-.092.1-.028.172.106v-.015a1.055,1.055,0,0,1,0-.164.576.576,0,0,1,.064-.266c.041.08-.017.213.066.1-.012.14-.03.322-.074.175-.007.074-.013.143-.021.217.052.09.125-.094.158-.128-.015.006-.03.011-.04-.009l.1-.391a.324.324,0,0,1,.009.192,1.919,1.919,0,0,1,.066-.2.98.98,0,0,1-.013.435l.108-.3c.019.055.1.1.095.169.1,0,.118-.446.242-.438a.205.205,0,0,1,.011-.1c.095-.057.254-.01.276-.262l.181.121c.057-.126-.232-.148-.146-.349.047-.145.146.112.217.124-.021-.132-.07-.391.091-.307.01.047-.023.035-.033.068m.543-.678c.01.034.053.125-.016.072-.106-.131-.039-.085.016-.072m.675-1.173c.026.044-.006.04-.06.016,0-.019.018-.028.06-.016m1.852-3.3,0,.006c-.066-.013-.041-.007,0-.006m.1-.01a.113.113,0,0,0-.04-.046c.022.03.012.044-.01.051.032.023.057.035.05,0m-4.988,4.154-.017.038c-.053.006-.019-.015.017-.038" transform="translate(1.846 2.061)" fill="#fb6b00"/>
    <path id="Pfad_4425" data-name="Pfad 4425" d="M13.321,12.955l-.062-.051a.109.109,0,0,0,.062.051" transform="translate(2.845 2.768)" fill="#fb6b00"/>
    <path id="Pfad_4426" data-name="Pfad 4426" d="M11.789,14.844h0l.006.03Z" transform="translate(2.528 3.184)" fill="#fb6b00"/>
    <path id="Pfad_4427" data-name="Pfad 4427" d="M14.927,11.446a.192.192,0,0,1-.075-.032c.024.026.051.043.075.032" transform="translate(3.186 2.448)" fill="#fb6b00"/>
    <path id="Pfad_4428" data-name="Pfad 4428" d="M14.981,9.638l-.009.062c.012-.022.041,0,.066,0-.024-.023-.067-.052-.057-.064" transform="translate(3.212 2.067)" fill="#fb6b00"/>
    <path id="Pfad_4429" data-name="Pfad 4429" d="M15.768,9.931c-.007-.018.01-.012,0-.03l-.049-.046a.053.053,0,0,0,.047.077" transform="translate(3.371 2.114)" fill="#fb6b00"/>
    <path id="Pfad_4430" data-name="Pfad 4430" d="M15.292,9.909c.09.084.083.033.091-.007l0,0c-.114-.129-.1-.062-.086,0" transform="translate(3.279 2.109)" fill="#fb6b00"/>
    <path id="Pfad_4431" data-name="Pfad 4431" d="M15.368,9.89c0-.012.009-.022.021-.024-.046-.052-.019,0-.021.024" transform="translate(3.296 2.111)" fill="#fb6b00"/>
    <path id="Pfad_4432" data-name="Pfad 4432" d="M14.913,9.938c.034.011-.1-.119-.062-.09-.1-.124.057.211.062.09" transform="translate(3.179 2.106)" fill="#fb6b00"/>
    <path id="Pfad_4433" data-name="Pfad 4433" d="M15.563,10.133l-.117-.1.073.1Z" transform="translate(3.314 2.152)" fill="#fb6b00"/>
    <path id="Pfad_4434" data-name="Pfad 4434" d="M15.321,10.219l.069-.01a.074.074,0,0,1-.027-.047c-.028.021-.075.027-.043.057" transform="translate(3.285 2.18)" fill="#fb6b00"/>
    <path id="Pfad_4435" data-name="Pfad 4435" d="M15.354,10.172a.036.036,0,0,0,.013-.05.074.074,0,0,0-.013.05" transform="translate(3.294 2.171)" fill="#fb6b00"/>
    <path id="Pfad_4436" data-name="Pfad 4436" d="M15.538,10.188l-.034-.011-.035.019Z" transform="translate(3.319 2.183)" fill="#fb6b00"/>
    <path id="Pfad_4437" data-name="Pfad 4437" d="M14.957,10.539l-.012.074c.033.04.067.051.068.021-.016-.035-.013-.066-.056-.095" transform="translate(3.206 2.261)" fill="#fb6b00"/>
    <path id="Pfad_4438" data-name="Pfad 4438" d="M15.322,10.686a.429.429,0,0,1-.1-.063l.132.135Z" transform="translate(3.266 2.279)" fill="#fb6b00"/>
    <path id="Pfad_4439" data-name="Pfad 4439" d="M15.227,10.8c.033.041.044.168.09.106-.033-.041-.021-.114-.09-.106" transform="translate(3.267 2.317)" fill="#fb6b00"/>
    <path id="Pfad_4440" data-name="Pfad 4440" d="M14.6,11.234l.009-.012L14.385,11Z" transform="translate(3.086 2.361)" fill="#fb6b00"/>
    <path id="Pfad_4441" data-name="Pfad 4441" d="M14.547,12.126c.1,0-.123-.147-.012-.128-.039-.063-.09-.016-.123-.073.024.085-.023.07.135.2" transform="translate(3.092 2.558)" fill="#fb6b00"/>
    <path id="Pfad_4442" data-name="Pfad 4442" d="M14.414,11.935c0-.012-.01-.028-.018-.049a.259.259,0,0,0,.018.049" transform="translate(3.089 2.55)" fill="#fb6b00"/>
    <path id="Pfad_4443" data-name="Pfad 4443" d="M9.243,11.729l.013-.078-.052.094Z" transform="translate(1.975 2.499)" fill="#fb6b00"/>
    <path id="Pfad_4444" data-name="Pfad 4444" d="M9.053,11.823l.132-.147-.146.107c.013,0,.039,0,.013.04" transform="translate(1.94 2.505)" fill="#fb6b00"/>
    <path id="Pfad_4445" data-name="Pfad 4445" d="M13.047,13.876l-.032-.036c-.041-.03-.051-.026-.072-.016Z" transform="translate(2.777 2.964)" fill="#fb6b00"/>
    <path id="Pfad_4446" data-name="Pfad 4446" d="M12.6,14.163l.011,0-.141-.112Z" transform="translate(2.676 3.013)" fill="#fb6b00"/>
    <path id="Pfad_4447" data-name="Pfad 4447" d="M12.324,14.693c.034-.024.045-.09.079-.114-.045.091-.222-.057-.079.114" transform="translate(2.632 3.127)" fill="#fb6b00"/>
  </g>
</svg>
