<svg id="Gruppe_635" data-name="Gruppe 635" xmlns="http://www.w3.org/2000/svg" xmlns:xlink="http://www.w3.org/1999/xlink" width="30.7" height="31.532" viewBox="0 0 30.7 31.532">
  <defs>
    <clipPath id="clip-path">
      <rect id="Rechteck_279" data-name="Rechteck 279" width="30.7" height="31.532" fill="#fb6b00"/>
    </clipPath>
  </defs>
  <g id="Gruppe_634" data-name="Gruppe 634" transform="translate(0 0)" clip-path="url(#clip-path)">
    <path id="Pfad_4448" data-name="Pfad 4448" d="M5.789,4.6c.2,0,.128-.121.159-.146-.357.045-.143.18-.159.146" transform="translate(1.231 0.955)" fill="#fb6b00"/>
    <path id="Pfad_4449" data-name="Pfad 4449" d="M4.549,6.395,4.5,6.358l.128.3Z" transform="translate(0.965 1.364)" fill="#fb6b00"/>
    <path id="Pfad_4450" data-name="Pfad 4450" d="M4.553,8.2c.216-.183-.035-.7.043-1.046L4.644,7.1,4.47,6.946A6.654,6.654,0,0,1,4.553,8.2" transform="translate(0.959 1.49)" fill="#fb6b00"/>
    <path id="Pfad_4451" data-name="Pfad 4451" d="M4.152,8.872c.084-.063.073.223.027-.24l-.022.044c0,.041,0,.1,0,.2" transform="translate(0.891 1.852)" fill="#fb6b00"/>
    <path id="Pfad_4452" data-name="Pfad 4452" d="M4.162,8.679c-.006-.2-.07.134,0,0" transform="translate(0.886 1.847)" fill="#fb6b00"/>
    <path id="Pfad_4453" data-name="Pfad 4453" d="M4.226,9.489l-.075-.268c-.05.056-.061.3-.1.206.041.274.091.219.172.062" transform="translate(0.87 1.978)" fill="#fb6b00"/>
    <path id="Pfad_4454" data-name="Pfad 4454" d="M4.334,9.675,4.3,9.537c-.021.024-.028.061.032.138" transform="translate(0.92 2.046)" fill="#fb6b00"/>
    <path id="Pfad_4455" data-name="Pfad 4455" d="M4.244,9.294l.067.3c.035-.039.106-.044-.024-.136.064.024,0-.034-.043-.159" transform="translate(0.911 1.994)" fill="#fb6b00"/>
    <path id="Pfad_4456" data-name="Pfad 4456" d="M4.272,9.232c.047-.151.077-.345.152-.075-.03-.514-.182-.438-.152.075" transform="translate(0.916 1.889)" fill="#fb6b00"/>
    <path id="Pfad_4457" data-name="Pfad 4457" d="M4.726,8.128l.063-.2-.073-.174c.036.087-.058.387.01.375" transform="translate(1.009 1.663)" fill="#fb6b00"/>
    <path id="Pfad_4458" data-name="Pfad 4458" d="M4.1,10.872c.046.017.123-.09.182-.111l-.053-.2c-.032.1-.061.3-.129.308" transform="translate(0.88 2.266)" fill="#fb6b00"/>
    <path id="Pfad_4459" data-name="Pfad 4459" d="M4.253,10.728l.079.3c.01-.265-.028-.313-.079-.3" transform="translate(0.912 2.301)" fill="#fb6b00"/>
    <path id="Pfad_4460" data-name="Pfad 4460" d="M4.553,9.777,4.387,9.29l.169.581Z" transform="translate(0.941 1.993)" fill="#fb6b00"/>
    <path id="Pfad_4461" data-name="Pfad 4461" d="M4.117,11.779l-.107-.168.162.3Z" transform="translate(0.86 2.491)" fill="#fb6b00"/>
    <path id="Pfad_4462" data-name="Pfad 4462" d="M4.15,12.374c-.089-.124-.149.17-.2.039a1.647,1.647,0,0,0,.16.536,1.049,1.049,0,0,1,.044-.574" transform="translate(0.847 2.648)" fill="#fb6b00"/>
    <path id="Pfad_4463" data-name="Pfad 4463" d="M4.178,13.1a1.944,1.944,0,0,0-.1-.264.96.96,0,0,0,.1.264" transform="translate(0.875 2.755)" fill="#fb6b00"/>
    <path id="Pfad_4464" data-name="Pfad 4464" d="M4.322,11.387a.323.323,0,0,0-.131.233L4.32,11.5c0-.035,0-.075,0-.117" transform="translate(0.899 2.443)" fill="#fb6b00"/>
    <path id="Pfad_4465" data-name="Pfad 4465" d="M4.3,11.479l0,0c0,.126-.007.215-.007.253,0-.033,0-.109.011-.256" transform="translate(0.921 2.463)" fill="#fb6b00"/>
    <path id="Pfad_4466" data-name="Pfad 4466" d="M4.3,11.362v.029c.012-.011.017-.018,0-.029" transform="translate(0.923 2.437)" fill="#fb6b00"/>
    <path id="Pfad_4467" data-name="Pfad 4467" d="M4.427,10.33c.073.174.151.537.261.186-.089-.125-.152.077-.261-.186" transform="translate(0.95 2.216)" fill="#fb6b00"/>
    <path id="Pfad_4468" data-name="Pfad 4468" d="M4.449,11.3l.029-.315c-.034.006-.084.063-.12-.023Z" transform="translate(0.935 2.352)" fill="#fb6b00"/>
    <path id="Pfad_4469" data-name="Pfad 4469" d="M4.477,11.4l-.041-.154-.011.117Z" transform="translate(0.949 2.412)" fill="#fb6b00"/>
    <path id="Pfad_4470" data-name="Pfad 4470" d="M4.259,12.636a1.359,1.359,0,0,1,.07.453,3.926,3.926,0,0,0,.039-.543c-.041-.026-.114-.1-.109.09" transform="translate(0.914 2.684)" fill="#fb6b00"/>
    <path id="Pfad_4471" data-name="Pfad 4471" d="M4.289,12.062l.007.03c.011-.018.015-.034-.007-.03" transform="translate(0.92 2.588)" fill="#fb6b00"/>
    <path id="Pfad_4472" data-name="Pfad 4472" d="M4.317,14.354l.023-.027-.022-.006Z" transform="translate(0.926 3.072)" fill="#fb6b00"/>
    <path id="Pfad_4473" data-name="Pfad 4473" d="M4.377,12.566a.408.408,0,0,0-.046-.294,2.982,2.982,0,0,1,.022.324c.018.011.03.013.024-.03" transform="translate(0.929 2.633)" fill="#fb6b00"/>
    <path id="Pfad_4474" data-name="Pfad 4474" d="M4.211,13.479a2.341,2.341,0,0,0,.072-.234c-.041.069-.106.209-.072.234" transform="translate(0.901 2.841)" fill="#fb6b00"/>
    <path id="Pfad_4475" data-name="Pfad 4475" d="M4.27,12.129l-.006-.021c-.028.045-.013.039.006.021" transform="translate(0.911 2.597)" fill="#fb6b00"/>
    <path id="Pfad_4476" data-name="Pfad 4476" d="M4.266,12.133a.9.9,0,0,0,.079.18,1.561,1.561,0,0,0-.043-.226.235.235,0,0,1-.036.046" transform="translate(0.915 2.593)" fill="#fb6b00"/>
    <path id="Pfad_4477" data-name="Pfad 4477" d="M5.145,14.909c-.12-.024-.232-.38-.1-.687-.091-.3-.486-.1-.707.159.052.01.1.01.171.321.066-.108.154-.69.262-.428.062.412-.043.338-.106.538.149-.17.217.525.438.435l-.078-.362c.034-.006.089.125.12.024" transform="translate(0.93 3.018)" fill="#fb6b00"/>
    <path id="Pfad_4478" data-name="Pfad 4478" d="M4.378,13.862l-.015-.128a1.411,1.411,0,0,1-.164.442c.06.214.1.257.143.272l.017-.63Z" transform="translate(0.901 2.946)" fill="#fb6b00"/>
    <path id="Pfad_4479" data-name="Pfad 4479" d="M4.347,13.319c.131.1.187.408.328.219-.009-.375-.109-.262-.166-.487.033.606-.073-.175-.147.264a2.389,2.389,0,0,1-.034-.328c-.016.109-.035.215-.06.315l.007-.015v0h0c.016-.026.026-.034.017,0l0,.012a.13.13,0,0,1,.049.028c-.027.176-.034.028-.049-.028l-.019-.007,0,0,.072.607a3.221,3.221,0,0,0,0-.574" transform="translate(0.916 2.786)" fill="#fb6b00"/>
    <path id="Pfad_4480" data-name="Pfad 4480" d="M4.879,10.75a.032.032,0,0,1-.03.019c.016.039.027.055.03-.019" transform="translate(1.04 2.306)" fill="#fb6b00"/>
    <path id="Pfad_4481" data-name="Pfad 4481" d="M4.865,11.026a.31.31,0,0,1-.057-.225c.039-.124.063,0,.106-.006-.035-.086-.094-.3-.158-.032l.018.044c-.045.244-.208.559-.226.516a.929.929,0,0,0,.317-.3" transform="translate(0.976 2.281)" fill="#fb6b00"/>
    <path id="Pfad_4482" data-name="Pfad 4482" d="M4.6,12.122l.064.505.113-.257-.068.013c.027-.288-.057-.226-.109-.261" transform="translate(0.987 2.6)" fill="#fb6b00"/>
    <path id="Pfad_4483" data-name="Pfad 4483" d="M4.287,14.408l-.138-.067.2.291Z" transform="translate(0.89 3.077)" fill="#fb6b00"/>
    <path id="Pfad_4484" data-name="Pfad 4484" d="M4.3,14.942l-.12-.024.073.174Z" transform="translate(0.896 3.2)" fill="#fb6b00"/>
    <path id="Pfad_4485" data-name="Pfad 4485" d="M20.112,19.827l-.034-.148a.778.778,0,0,0,.034.148" transform="translate(4.308 4.222)" fill="#fb6b00"/>
    <path id="Pfad_4486" data-name="Pfad 4486" d="M20.1,20.691l.06.027c-.033-.05-.057-.07-.06-.027" transform="translate(4.312 4.434)" fill="#fb6b00"/>
    <path id="Pfad_4487" data-name="Pfad 4487" d="M8.4,25.8c.216.112.458.287.432.151l-.067-.131A.834.834,0,0,1,8.4,25.8" transform="translate(1.801 5.534)" fill="#fb6b00"/>
    <path id="Pfad_4488" data-name="Pfad 4488" d="M17.535,25.157l-.063-.04-.147.126.21-.086" transform="translate(3.717 5.388)" fill="#fb6b00"/>
    <path id="Pfad_4489" data-name="Pfad 4489" d="M17.624,24.7l.285.085a1.374,1.374,0,0,0-.285-.085" transform="translate(3.781 5.299)" fill="#fb6b00"/>
    <path id="Pfad_4490" data-name="Pfad 4490" d="M20.015,14.993l-.134-.174c0,.272.068.152.134.174" transform="translate(4.265 3.179)" fill="#fb6b00"/>
    <path id="Pfad_4491" data-name="Pfad 4491" d="M4.331,20.481a2.118,2.118,0,0,0-.079.466c.075-.226.188-.407.079-.466" transform="translate(0.912 4.394)" fill="#fb6b00"/>
    <path id="Pfad_4492" data-name="Pfad 4492" d="M21.271,20.172c-.024-.091-.051-.13-.08-.128.023.094.047.147.08.128" transform="translate(4.547 4.3)" fill="#fb6b00"/>
    <path id="Pfad_4493" data-name="Pfad 4493" d="M4.262,21.4c.012-.039.021-.064.032-.1a1.942,1.942,0,0,1-.032-.441.682.682,0,0,0,0,.539" transform="translate(0.902 4.476)" fill="#fb6b00"/>
    <path id="Pfad_4494" data-name="Pfad 4494" d="M12.518,5.8l-.049-.016c0,.018.017.018.049.016" transform="translate(2.675 1.24)" fill="#fb6b00"/>
    <path id="Pfad_4495" data-name="Pfad 4495" d="M7.4,4.7a2.509,2.509,0,0,1,.255-.01A.829.829,0,0,0,7.4,4.7" transform="translate(1.587 1.005)" fill="#fb6b00"/>
    <path id="Pfad_4496" data-name="Pfad 4496" d="M4.231,17.127c-.009-.14-.015-.022,0,0" transform="translate(0.906 3.66)" fill="#fb6b00"/>
    <path id="Pfad_4497" data-name="Pfad 4497" d="M4.658,16.557a.087.087,0,0,0,.064.056.114.114,0,0,1-.064-.056" transform="translate(0.999 3.552)" fill="#fb6b00"/>
    <path id="Pfad_4498" data-name="Pfad 4498" d="M4.926,22.455v.012c.026-.041.022-.034,0-.012" transform="translate(1.057 4.814)" fill="#fb6b00"/>
    <path id="Pfad_4499" data-name="Pfad 4499" d="M4.286,16.942a1.267,1.267,0,0,0-.039.179,1.29,1.29,0,0,0,.039-.179" transform="translate(0.911 3.635)" fill="#fb6b00"/>
    <path id="Pfad_4500" data-name="Pfad 4500" d="M4.229,16.989l.012-.121c-.022-.018-.035,0-.012.121" transform="translate(0.905 3.617)" fill="#fb6b00"/>
    <path id="Pfad_4501" data-name="Pfad 4501" d="M4.236,17.315a1.353,1.353,0,0,1,.013-.226c-.009.028-.016.039-.021.032,0,.041,0,.1.007.194" transform="translate(0.907 3.666)" fill="#fb6b00"/>
    <path id="Pfad_4502" data-name="Pfad 4502" d="M20.376,6.836l.012-.03c-.055-.14-.045-.079-.012.03" transform="translate(4.366 1.442)" fill="#fb6b00"/>
    <path id="Pfad_4503" data-name="Pfad 4503" d="M11.385,24.671l-.016.006.021,0Z" transform="translate(2.439 5.293)" fill="#fb6b00"/>
    <path id="Pfad_4504" data-name="Pfad 4504" d="M11.883,24.59a.5.5,0,0,1-.5.109l.165.38Z" transform="translate(2.443 5.275)" fill="#fb6b00"/>
    <path id="Pfad_4505" data-name="Pfad 4505" d="M23.506,20.486l-.118.352c-.2-.425-.128-.731-.294-.4.412.05.043,1.368.454,1.416l-.087.232c0-.067-.019-.078-.016-.143-.2.451.3.335.239.916-.032.2-.091.344-.14.206l.1.451c-.009.131-.08.1-.073-.032l.034.689-.012-.006a3.107,3.107,0,0,1,.206.43c-.058.175-.044-.089-.095-.044l.1.381c-.107.155-.21-.16-.2-.424-.412.356.1.316-.136,1.083l-.052-.36c-.234.232-.149.513-.3.919.077-.1.368-.814.47-.4a.76.76,0,0,0,.038.493c-.147,0-.112.22-.1.493l-.194-.019c.057.3.155.272.243.445a.492.492,0,0,1-.3.475c-.03.525.242-.363.278.259a1.624,1.624,0,0,0-.013.531.713.713,0,0,1,0,.33c-.149.07-.074-.094-.152-.089a.563.563,0,0,1,.019.194c-.029.017-.047-.029-.058-.051-.062.106.115.175-.072.31-.01.113-.126.074-.323-.007a.921.921,0,0,0-.721-.023c-.111-.056.052-.119.019-.194a4.459,4.459,0,0,0-1.025.33l-.426-.128c.313.146-.087.318-.438.459a2.909,2.909,0,0,0,.27.162l-.56.1c-.068-.032-.011-.1.08-.18l-.1.047c-.2-.072-.1-.185.047-.293l.2.12c.138-.119.267-.249.239-.363a.529.529,0,0,1-.185.052c.036-.032.06-.061.043-.08s-.078.023-.169.073l-.128-.216-.03.085-.734-.135a5.524,5.524,0,0,1-1.812.628c.206-.159.044-.259.056-.447.227.2.644-.085,1.075-.045-.225-.021-.175-.111-.118-.142l-.769.182c.017-.154-.164-.115-.364-.18.152.3-.574.2-.887.3-.019-.1.055-.206.437-.182-.421-.228-.544.357-.958.163.094,0,.143.013.181-.039-.219.091-.751.019-.625-.07h.092c-.618-.036-1.884,0-1.976.256a1.4,1.4,0,0,1,.118-.364l-1.1.87c.1-.222-.277-.751.237-.876a1.252,1.252,0,0,0-.64.01c.1.032.25.321.113.341a3.038,3.038,0,0,0-.726-.343c.151.047-.017.395-.255.384.036-.052-.021-.344.067-.379l-.593.341c.148-.062.026-.29-.107-.386.062.067-.513-.006-.67.028l.251.079c-.669-.052-.662.48-1.325.462.08-.07.2-.434-.14-.476a2.893,2.893,0,0,1-1.273.975l-.113-.1-.451.114A8.859,8.859,0,0,1,8.57,29c-.25-.08-.069-.118-.445-.109-.132-.094.2-.142.315-.148l-.873-.06c.039.2-.668.2-.635.374l.949-.211c.039.2-.548.579-1.167.543-.158-.08.118-.363.1-.431-.063.069-.629.137-.587.08a.706.706,0,0,1,.205-.1c-.211-.038-.188.028-.3.057a.162.162,0,0,1-.234-.129c-.068-.073.077-.311-.027-.25-.168.177-.624.759-.9.686a1.435,1.435,0,0,1-.1-.534,1.053,1.053,0,0,1,.153-.567c.182-.234.435.35.591.152-.056-.009-.124-.138-.147-.192.049-.151.174.062.148-.265-.208-.053.017-.663-.175-.154-.06-.318.043-.339.033-.713-.134.119-.454-.336-.514-.656.052.018.121-.053.152-.087.019-.655.113-1.006.115-1.615.05-.056.111-.35.2-.225a.762.762,0,0,1-.112-.356c.18-.364.028.419.243.141-.12-.023-.165-.486-.24-.754-.186.083-.036.619.039.888-.256,0-.525-.466-.642-1.1-.064-.506.165-.22.129-.307.045-.952-.447-.811-.262-1.6.163-.313.324-.015.442-.084.062.413-.1.633-.1.913L5,21.836a1.029,1.029,0,0,1,.049.557c.146-.264.028-1.608.163-2.342-.055-.13-.111-.356-.177-.249l.023.232c-.131.214-.182-.437-.243-.143a2.269,2.269,0,0,1-.164-1.1l.186-.083c-.053.01-.111.287-.053.411-.083-.183.251-.673.009-.873l-.13.307a2.533,2.533,0,0,1-.232-1.087c-.183.176.021.089-.194.366.267-.239-.011.993.27.61-.249.283-.106.491-.318.861.062-.012.118-.131.087.194a.324.324,0,0,1,.053.072l0,.022.007-.018c.009.015.011.016,0-.006a.376.376,0,0,1,.092-.166c.142.162.137.681.21.856-.029.193-.07-.081-.136.024l.109.262c-.136.027-.227.515-.306.058l-.006.411a1.575,1.575,0,0,0-.05.78c-.03.193.151.488.044.319l.085.645-.034,0A6.071,6.071,0,0,1,4.319,24.8a2.607,2.607,0,0,1,.038.793l-.118.069c.041.274-.118.825,0,.942-.316.311-.072,1.3-.123,1.847l.155.026a1.772,1.772,0,0,0,.862,1.445l.052-.131a3.742,3.742,0,0,0,.891.377,4.781,4.781,0,0,0,.888.092c-.039.052-.181.038-.282.007.672.307,1.417-.225,2.027,0a.553.553,0,0,1,.369,0,.091.091,0,0,0-.038.007H9.11l.211.073a.844.844,0,0,0-.177-.073,2.972,2.972,0,0,0,.469-.053l.074.146.04,0c.171.053.137-.069.046-.18A1.077,1.077,0,0,0,10,30.093c.138.237.457-.079.646.172.118-.123.876-.092.968-.35.006.033.058.049-.036.051a1.048,1.048,0,0,0,.562-.013l.083.186.424-.25c.257.113.364.179.109.322.617-.22.5-.083,1.026-.3l-.026.12c.187,0,.487-.165.6-.066.419.228,2.078.032,3.155.244-.209-.355.5.158.544-.117.063.084.213.131.039.2.55-.083.826.132,1.206-.1.063.084-.118.123-.062.172.045-.018.175-.073.232-.023s-.08.07-.168.107c.562-.015.619-.272.66-.514a.533.533,0,0,0,.633-.061c.1.079.265.162-.084.191.2.011,1.2.117,1.219-.078a.509.509,0,0,0,.327-.009c.441.012.48.029.912.011l-.12-.032c.148-.243.406-.012.814-.214v.027c.5-.157.543-.325.6-.4a6.634,6.634,0,0,0,.381-.639l-.155.021c-.243-.159.232-.769.115-1.227l-.083.165c-.108-.25.425-.7.465-.95.027-.055.043.086.063.163.185-.658-.191-.085-.236-.576.1-.09.262.117.282-.214.083-.164-.334-.957-.137-1.406-.079.1-.158.2-.217-.03-.029-.349.3-.944.049-1.259.022-.044.044-.061.063-.062a3.964,3.964,0,0,0-.243-1.029c.5-.247-.245-1.658.219-1.652l-.024-.821.047.021a1.29,1.29,0,0,0-.192-.894c.032-.121.075-.033.1-.023a2.268,2.268,0,0,0-.158-1.485l.151-.067a10.3,10.3,0,0,0,.061-1.859.121.121,0,0,1,.067.083c-.176-.845.418-2.025-.13-2.334l-.135-.559c-.043.723-.238-.107-.329.189-.033-.284.165-.734.193-.385l-.027.055c.285.128.1-.9.3-.878-.013-1.421.145-2.806.157-4.137l-.222.153.012-.464c.052-.121.175-.164.165.168.126-.174-.106-.555-.154-.565.091-.649.26.253.265.055l-.017-.271-.026.061a2.987,2.987,0,0,1-.283-.8c-.1-.345.049-.231-.013-.364.012-.006,0-.061-.128-.2a1.86,1.86,0,0,0-.691-.564,1.61,1.61,0,0,1,.213.323c-.345-.14-.683-.306-.415-.013a.865.865,0,0,0-.613-.259,6.77,6.77,0,0,0-.758-.034,7.654,7.654,0,0,1-1.155-.023,3.064,3.064,0,0,1-1.166.109c.111.036.177.234-.206.21.141-.407-.7-.177-1.011-.47.277.194-1.088.049-.655.324-.319-.033-.019-.153-.262-.249a22.533,22.533,0,0,1-2.616-.049c-.015.053.143.135-.058.215l-.5-.267c-.186.026-.171.308-.51.123.049.045.119.113,0,.13-1.841-.26-3.764.213-5.634-.276.254.1.085.113-.108.118.125.024,0,.131.022.2l-.783-.2c-.142.2-.839.013-.921.206l.248-.035c-.33.227.462.5.413.794.369-.257.973.383,1.579.013.134.06-.114.094-.043.162a.788.788,0,0,1,.683-.095l-.039.03a19.723,19.723,0,0,1,2.464.174l-.08-.143a1.1,1.1,0,0,1,.391.1c.267-.219-.655-.012-.411-.253.308.293,1.643,0,1.852.336.358,0-.1-.166.254-.164l.095.09.09-.117c.236.019.355.132.363.208a1.209,1.209,0,0,0-.223.028,4.151,4.151,0,0,0,.964,0l-.345-.056c.979-.084,2.174.034,3.119-.148l-.072-.068c.723-.126.578.074,1.371.016l-.029.017a1.424,1.424,0,0,1,.588-.095c-.2.08.377.154.114.243.782-.135.386-.106.9-.358l.119.113a.913.913,0,0,1,.587-.185c-.324.1.253.171-.111.3.81.248,1.281-.251,1.567.114.1-.142.067-.2-.142-.215s-.423.006-.316-.028c-.191-.1.341-.243.549-.191.234.056.249.448.408.7-.018-.029-.035-.021-.056-.046,0,.13.219.179.095.385.188.172-.011.4.23.448-.021-.182-.032-.458-.061-.562a1.912,1.912,0,0,1,.214,1.194,1.04,1.04,0,0,1-.148-.332c-.072.168.046.322-.026.5-.242-.05-.053-.745-.237-1.116-.1.18.175.7-.086.517.332.268-.041.657.211,1.109l-.145-.029a1.077,1.077,0,0,1,.087.351l-.187-.238c.16.366-.138.706-.052,1.057,0-.735.174-.165.279-.476.192.906-.378.521-.308,1.536-.021-.137.086-.516.153-.3a1.8,1.8,0,0,1-.16.567c.03.673.148-.1.237.183-.175.228.072.329.128.624l-.146,0c-.095.766.3.2.191.893l-.2-.291.052.36-.166-.074a1.605,1.605,0,0,1,.045.9c.1-.089.266.05.271.39-.087.231-.14-.13-.119.351-.091-.108-.206-.227-.072-.436-.047-.022-.091-.108-.138-.13a2.172,2.172,0,0,0-.022.8.645.645,0,0,1,.034-.188l.2.7c-.056.109-.1.022-.143-.064a3.98,3.98,0,0,1,.1.447c-.119-.053-.242-.041-.3-.335l.131.664c-.051.045-.142.341-.186.255-.069.368.231.9.138,1.392a.362.362,0,0,1,.063.181,3.467,3.467,0,0,0-.01,1.409l-.214.308c.049.426.268-.418.35.293.068.5-.182.187-.242.363a1.5,1.5,0,0,1,.153,1.145,2.326,2.326,0,0,1-.026-.415m.095,5.255c-.03-.1-.125-.3-.039-.379.168.115.087.205.039.379m-4,3.537a.373.373,0,0,1,.324.03.753.753,0,0,1-.324-.03M4.38,21.329l.007.011c-.057.227-.034.147-.007-.011m.064-.471c-.021-.047-.041-.045-.062-.024.038.033.04.138.029.26.039-.034.066-.095.033-.236M24.553,5.519l.038.135c-.192-.232-.125-.177-.038-.135" transform="translate(0.875 0.985)" fill="#fb6b00"/>
    <path id="Pfad_4506" data-name="Pfad 4506" d="M17.607,24.753a.136.136,0,0,1,.044.08c.04-.026.04-.053-.044-.08" transform="translate(3.778 5.31)" fill="#fb6b00"/>
    <path id="Pfad_4507" data-name="Pfad 4507" d="M20.016,14.995v-.016a.056.056,0,0,0-.027-.016Z" transform="translate(4.289 3.21)" fill="#fb6b00"/>
    <path id="Pfad_4508" data-name="Pfad 4508" d="M5.415,24a.441.441,0,0,1-.075.187c.035.006.066-.039.075-.187" transform="translate(1.146 5.149)" fill="#fb6b00"/>
    <path id="Pfad_4509" data-name="Pfad 4509" d="M4.175,15.927l.038.3a.582.582,0,0,1,.049-.272c-.034.006-.084.064-.086-.03" transform="translate(0.896 3.417)" fill="#fb6b00"/>
    <path id="Pfad_4510" data-name="Pfad 4510" d="M4.937,13.792c-.018-.044,0-.094-.021-.137l-.068.012c0,.188.06.319.089.125" transform="translate(1.04 2.929)" fill="#fb6b00"/>
    <path id="Pfad_4511" data-name="Pfad 4511" d="M4.586,15.772c.123-.024.081-.214.058-.425v.038c-.172-.063-.115.163-.058.387" transform="translate(0.972 3.292)" fill="#fb6b00"/>
    <path id="Pfad_4512" data-name="Pfad 4512" d="M4.627,15.341a1.173,1.173,0,0,1,0-.2c-.068-.024-.013.079,0,.2" transform="translate(0.985 3.248)" fill="#fb6b00"/>
    <path id="Pfad_4513" data-name="Pfad 4513" d="M4.339,17.515c.032-.1-.159-.063-.107-.12-.158-.112.188.669.107.12" transform="translate(0.899 3.729)" fill="#fb6b00"/>
    <path id="Pfad_4514" data-name="Pfad 4514" d="M4.937,15.556l-.152.075.123.119Z" transform="translate(1.027 3.337)" fill="#fb6b00"/>
    <path id="Pfad_4515" data-name="Pfad 4515" d="M4.822,17.008l.043-.338c-.026,0-.041-.039-.052-.091,0,.209-.035.437.01.429" transform="translate(1.029 3.557)" fill="#fb6b00"/>
    <path id="Pfad_4516" data-name="Pfad 4516" d="M4.815,16.627a.767.767,0,0,0-.026-.272,1.9,1.9,0,0,0,.026.272" transform="translate(1.027 3.509)" fill="#fb6b00"/>
    <path id="Pfad_4517" data-name="Pfad 4517" d="M4.955,15.936l-.032.1-.011.239Z" transform="translate(1.054 3.419)" fill="#fb6b00"/>
    <path id="Pfad_4518" data-name="Pfad 4518" d="M4.794,19.927l.044.369c.052.038.084-.063.063-.2-.036-.089-.056-.226-.107-.169" transform="translate(1.029 4.272)" fill="#fb6b00"/>
    <path id="Pfad_4519" data-name="Pfad 4519" d="M5.157,19.006c-.032.1-.066.107-.115.163l.188.011Z" transform="translate(1.082 4.077)" fill="#fb6b00"/>
    <path id="Pfad_4520" data-name="Pfad 4520" d="M5.173,19.917c.052.036.151.536.138.068-.052-.038-.1-.407-.138-.068" transform="translate(1.11 4.242)" fill="#fb6b00"/>
    <path id="Pfad_4521" data-name="Pfad 4521" d="M5.074,24.462l-.024-.084-.3.081a2.591,2.591,0,0,0,.322,0" transform="translate(1.02 5.23)" fill="#fb6b00"/>
    <path id="Pfad_4522" data-name="Pfad 4522" d="M8.762,24.5c-.437-.074-.1.191-.5.1-.1.073.323.075.217.138.265-.077.4-.034.282-.237" transform="translate(1.769 5.254)" fill="#fb6b00"/>
    <path id="Pfad_4523" data-name="Pfad 4523" d="M8.464,24.694a1.061,1.061,0,0,0-.135.047.509.509,0,0,0,.135-.047" transform="translate(1.787 5.298)" fill="#fb6b00"/>
    <path id="Pfad_4524" data-name="Pfad 4524" d="M6.6,4.574l-.282-.064.182.1Z" transform="translate(1.355 0.967)" fill="#fb6b00"/>
    <path id="Pfad_4525" data-name="Pfad 4525" d="M6.146,4.786l-.067-.2-.169.179c.064-.01.187-.027.236.018" transform="translate(1.268 0.984)" fill="#fb6b00"/>
    <path id="Pfad_4526" data-name="Pfad 4526" d="M19.825,22.688l.047.022c.051-.044.056-.109.063-.242Z" transform="translate(4.253 4.82)" fill="#fb6b00"/>
    <path id="Pfad_4527" data-name="Pfad 4527" d="M19.947,19.519l0,.066.179-.123Z" transform="translate(4.279 4.175)" fill="#fb6b00"/>
    <path id="Pfad_4528" data-name="Pfad 4528" d="M19.76,16.874c-.007.131.033.284.026.415-.033-.284.2-.451-.026-.415" transform="translate(4.239 3.619)" fill="#fb6b00"/>
    <path id="Pfad_4529" data-name="Pfad 4529" d="M17.1,3.027c-.011.069.117.045.138.055-.028-.115-.171-.052-.138-.055" transform="translate(3.668 0.646)" fill="#fb6b00"/>
    <path id="Pfad_4530" data-name="Pfad 4530" d="M16.875,2.112l.052.021a2.152,2.152,0,0,1-.132-.189c.03.068.056.124.08.169" transform="translate(3.603 0.417)" fill="#fb6b00"/>
    <path id="Pfad_4531" data-name="Pfad 4531" d="M16.456,1.021c-.063.226.353.381.366.675l-.034.053a1.9,1.9,0,0,1,.2.067,3.366,3.366,0,0,0-.53-.8" transform="translate(3.529 0.219)" fill="#fb6b00"/>
    <path id="Pfad_4532" data-name="Pfad 4532" d="M16.066.317c.026.1-.217-.015.2.113L16.238.394,16.066.317" transform="translate(3.437 0.068)" fill="#fb6b00"/>
    <path id="Pfad_4533" data-name="Pfad 4533" d="M16.2.387c.179.079-.085-.119,0,0" transform="translate(3.472 0.074)" fill="#fb6b00"/>
    <path id="Pfad_4534" data-name="Pfad 4534" d="M15.5.282A1.99,1.99,0,0,1,15.763.23c-.045-.063-.282-.086-.192-.118-.152.013-.159.039-.163.067s.013.058.1.1" transform="translate(3.306 0.024)" fill="#fb6b00"/>
    <path id="Pfad_4535" data-name="Pfad 4535" d="M15.351.388l.077-.032c-.013-.021-.033-.028-.077.032" transform="translate(3.294 0.073)" fill="#fb6b00"/>
    <path id="Pfad_4536" data-name="Pfad 4536" d="M15.662.308a1.521,1.521,0,0,0-.248.056c.022.034.016.1.1-.022-.022.063.028,0,.146-.034" transform="translate(3.307 0.066)" fill="#fb6b00"/>
    <path id="Pfad_4537" data-name="Pfad 4537" d="M15.736.354c.125.07.268.145.034.16.411.1.426-.079-.034-.16" transform="translate(3.376 0.076)" fill="#fb6b00"/>
    <path id="Pfad_4538" data-name="Pfad 4538" d="M16.285,1.116a.932.932,0,0,1,.044.136.91.91,0,0,1,.128.039c-.057-.024-.128-.231-.171-.175" transform="translate(3.494 0.237)" fill="#fb6b00"/>
    <path id="Pfad_4539" data-name="Pfad 4539" d="M14.706.157c-.01.046.05.123.061.182l.109-.053c-.056-.032-.163-.061-.17-.129" transform="translate(3.155 0.033)" fill="#fb6b00"/>
    <path id="Pfad_4540" data-name="Pfad 4540" d="M14.785.307l-.164.079c.146.01.174-.028.164-.079" transform="translate(3.137 0.066)" fill="#fb6b00"/>
    <path id="Pfad_4541" data-name="Pfad 4541" d="M15.338.605a1.049,1.049,0,0,1,.338-.154,1.283,1.283,0,0,0-.39.157Z" transform="translate(3.28 0.097)" fill="#fb6b00"/>
    <path id="Pfad_4542" data-name="Pfad 4542" d="M14.2.171,14.3.065l-.166.162Z" transform="translate(3.032 0.014)" fill="#fb6b00"/>
    <path id="Pfad_4543" data-name="Pfad 4543" d="M13.9.2c.069-.089-.095-.149-.022-.2a.652.652,0,0,0-.3.16A.339.339,0,0,1,13.9.2" transform="translate(2.915 0)" fill="#fb6b00"/>
    <path id="Pfad_4544" data-name="Pfad 4544" d="M13.467.232a.822.822,0,0,0,.146-.1.434.434,0,0,0-.146.1" transform="translate(2.889 0.028)" fill="#fb6b00"/>
    <path id="Pfad_4545" data-name="Pfad 4545" d="M14.414.377a.2.2,0,0,0-.129-.131l.064.129Z" transform="translate(3.065 0.053)" fill="#fb6b00"/>
    <path id="Pfad_4546" data-name="Pfad 4546" d="M14.365.357l0,0-.14-.007.142.011" transform="translate(3.052 0.074)" fill="#fb6b00"/>
    <path id="Pfad_4547" data-name="Pfad 4547" d="M14.408.354h-.016c.006.012.01.017.016,0" transform="translate(3.088 0.076)" fill="#fb6b00"/>
    <path id="Pfad_4548" data-name="Pfad 4548" d="M15.008.481c-.1.073-.3.151-.1.261.069-.089-.043-.152.1-.261" transform="translate(3.18 0.103)" fill="#fb6b00"/>
    <path id="Pfad_4549" data-name="Pfad 4549" d="M14.47.5l.174.029c0-.034-.034-.084.013-.12Z" transform="translate(3.105 0.088)" fill="#fb6b00"/>
    <path id="Pfad_4550" data-name="Pfad 4550" d="M14.4.531l.085-.041L14.421.479Z" transform="translate(3.09 0.102)" fill="#fb6b00"/>
    <path id="Pfad_4551" data-name="Pfad 4551" d="M13.757.314a.458.458,0,0,1-.25.07,1.225,1.225,0,0,0,.3.039c.013-.041.057-.114-.05-.109" transform="translate(2.898 0.067)" fill="#fb6b00"/>
    <path id="Pfad_4552" data-name="Pfad 4552" d="M14.02.343,14,.35c.011.011.019.015.017-.007" transform="translate(3.004 0.073)" fill="#fb6b00"/>
    <path id="Pfad_4553" data-name="Pfad 4553" d="M12.753.371l.015.023,0-.022Z" transform="translate(2.736 0.079)" fill="#fb6b00"/>
    <path id="Pfad_4554" data-name="Pfad 4554" d="M13.771.432a.147.147,0,0,0,.163-.046.922.922,0,0,1-.18.022c-.006.018-.007.03.017.024" transform="translate(2.95 0.083)" fill="#fb6b00"/>
    <path id="Pfad_4555" data-name="Pfad 4555" d="M13.257.266a.879.879,0,0,0,.13.072C13.348.3,13.27.232,13.257.266" transform="translate(2.844 0.055)" fill="#fb6b00"/>
    <path id="Pfad_4556" data-name="Pfad 4556" d="M13.984.324,14,.318C13.971.29,13.973.3,13.984.324" transform="translate(2.999 0.065)" fill="#fb6b00"/>
    <path id="Pfad_4557" data-name="Pfad 4557" d="M14,.32A.42.42,0,0,0,13.9.4a.541.541,0,0,0,.125-.043A.151.151,0,0,1,14,.32" transform="translate(2.982 0.068)" fill="#fb6b00"/>
    <path id="Pfad_4558" data-name="Pfad 4558" d="M12.558,1.2a.233.233,0,0,1,.38-.1c.168-.091.058-.486-.087-.707,0,.052,0,.1-.177.171.06.066.381.154.237.262-.228.062-.187-.043-.3-.106.094.149-.29.217-.242.438l.2-.078c0,.034-.069.089-.013.12" transform="translate(2.653 0.084)" fill="#fb6b00"/>
    <path id="Pfad_4559" data-name="Pfad 4559" d="M13.092.432l.07-.015a.617.617,0,0,1-.244-.164c-.118.06-.142.1-.151.143l.349.017Z" transform="translate(2.739 0.054)" fill="#fb6b00"/>
    <path id="Pfad_4560" data-name="Pfad 4560" d="M13.411.4c-.056.131-.226.187-.121.328.208-.009.146-.109.27-.166-.335.033.1-.073-.146-.147a.77.77,0,0,1,.181-.034,1.155,1.155,0,0,1-.172-.06l.007.007h0v0c.015.016.019.026,0,.017l-.006,0A.152.152,0,0,1,13.411.4c-.1-.027-.015-.034.016-.049l0-.019v0L13.093.4a.993.993,0,0,0,.318,0" transform="translate(2.809 0.069)" fill="#fb6b00"/>
    <path id="Pfad_4561" data-name="Pfad 4561" d="M14.748.933A.043.043,0,0,1,14.737.9c-.022.016-.03.027.011.03" transform="translate(3.158 0.193)" fill="#fb6b00"/>
    <path id="Pfad_4562" data-name="Pfad 4562" d="M14.658.919c.024-.018.045-.07.124-.057.069.039,0,.063,0,.106.047-.035.168-.094.017-.158L14.78.828C14.645.783,14.471.62,14.494.6a.921.921,0,0,0,.164.317" transform="translate(3.109 0.129)" fill="#fb6b00"/>
    <path id="Pfad_4563" data-name="Pfad 4563" d="M14.033.653l-.279.064L13.9.83,13.889.762c.159.027.125-.057.145-.109" transform="translate(2.951 0.14)" fill="#fb6b00"/>
    <path id="Pfad_4564" data-name="Pfad 4564" d="M12.748.342,12.786.2l-.163.2Z" transform="translate(2.708 0.043)" fill="#fb6b00"/>
    <path id="Pfad_4565" data-name="Pfad 4565" d="M12.442.352l.013-.12-.1.073Z" transform="translate(2.652 0.049)" fill="#fb6b00"/>
    <path id="Pfad_4566" data-name="Pfad 4566" d="M1.294,6.585l.034.083a.29.29,0,0,0-.034-.083" transform="translate(0.278 1.413)" fill="#fb6b00"/>
    <path id="Pfad_4567" data-name="Pfad 4567" d="M1.312,6.1l-.06-.015c.033.028.057.039.06.015" transform="translate(0.269 1.305)" fill="#fb6b00"/>
    <path id="Pfad_4568" data-name="Pfad 4568" d="M5.116.377C5,.266,4.863.091,4.877.227l.036.131a.267.267,0,0,1,.2.019" transform="translate(1.046 0.038)" fill="#fb6b00"/>
    <path id="Pfad_4569" data-name="Pfad 4569" d="M.74,2.1l.04-.035L.656,1.982c.027.036.055.077.084.118" transform="translate(0.141 0.425)" fill="#fb6b00"/>
    <path id="Pfad_4570" data-name="Pfad 4570" d="M1.189,2.149,1.1,2.307a.547.547,0,0,0,.085-.158" transform="translate(0.237 0.461)" fill="#fb6b00"/>
    <path id="Pfad_4571" data-name="Pfad 4571" d="M1.409,9.262l.134.1c0-.151-.068-.084-.134-.1" transform="translate(0.302 1.986)" fill="#fb6b00"/>
    <path id="Pfad_4572" data-name="Pfad 4572" d="M9.406.385A.713.713,0,0,0,9.149.306c.124.075.225.188.257.079" transform="translate(1.963 0.065)" fill="#fb6b00"/>
    <path id="Pfad_4573" data-name="Pfad 4573" d="M.143,6.391c.024.05.051.072.08.07C.2,6.41.176,6.38.143,6.391" transform="translate(0.031 1.371)" fill="#fb6b00"/>
    <path id="Pfad_4574" data-name="Pfad 4574" d="M8.9.316l.055.03A.631.631,0,0,1,9.2.316a.229.229,0,0,0-.3,0" transform="translate(1.91 0.055)" fill="#fb6b00"/>
    <path id="Pfad_4575" data-name="Pfad 4575" d="M1.322,18.965l-.016.027c.018,0,.018-.01.016-.027" transform="translate(0.28 4.069)" fill="#fb6b00"/>
    <path id="Pfad_4576" data-name="Pfad 4576" d="M2.008,21.44a.775.775,0,0,1-.141.01.257.257,0,0,0,.141-.01" transform="translate(0.401 4.6)" fill="#fb6b00"/>
    <path id="Pfad_4577" data-name="Pfad 4577" d="M11.222.285c.077-.009.012-.015,0,0" transform="translate(2.408 0.059)" fill="#fb6b00"/>
    <path id="Pfad_4578" data-name="Pfad 4578" d="M11.536.712a.088.088,0,0,0-.03.064.114.114,0,0,1,.03-.064" transform="translate(2.469 0.153)" fill="#fb6b00"/>
    <path id="Pfad_4579" data-name="Pfad 4579" d="M8.271.981H8.265c.022.026.018.021.006,0" transform="translate(1.773 0.21)" fill="#fb6b00"/>
    <path id="Pfad_4580" data-name="Pfad 4580" d="M11.335.34a.449.449,0,0,0-.1-.039.452.452,0,0,0,.1.039" transform="translate(2.411 0.064)" fill="#fb6b00"/>
    <path id="Pfad_4581" data-name="Pfad 4581" d="M11.3.284,11.373.3c.01-.022,0-.035-.068-.012" transform="translate(2.425 0.058)" fill="#fb6b00"/>
    <path id="Pfad_4582" data-name="Pfad 4582" d="M11.134.29A.426.426,0,0,1,11.259.3a.029.029,0,0,1-.017-.021L11.134.29" transform="translate(2.389 0.06)" fill="#fb6b00"/>
    <path id="Pfad_4583" data-name="Pfad 4583" d="M1.031,13.766l-.012.017c.055.078.046.044.012-.017" transform="translate(0.219 2.953)" fill="#fb6b00"/>
    <path id="Pfad_4584" data-name="Pfad 4584" d="M3.423,1.47l.009-.006-.011,0Z" transform="translate(0.734 0.313)" fill="#fb6b00"/>
    <path id="Pfad_4585" data-name="Pfad 4585" d="M3.195,1.635c.118-.164.185-.143.274-.109l-.092-.38Z" transform="translate(0.685 0.246)" fill="#fb6b00"/>
    <path id="Pfad_4586" data-name="Pfad 4586" d="M1.609,9.394,1.728,9.2c.194.234.128.4.294.221-.413-.027-.043-.755-.454-.782l.086-.129c0,.036.021.043.016.079.2-.249-.3-.186-.239-.506.032-.112.092-.189.141-.114l-.1-.249c.009-.073.079-.055.072.017l-.033-.38.012,0a1.621,1.621,0,0,1-.208-.237c.06-.1.044.049.1.023l-.1-.21c.107-.086.211.089.2.234.412-.2-.1-.175.137-.6l.052.2c.233-.128.149-.283.3-.508-.077.053-.368.449-.471.221a.25.25,0,0,0-.036-.272c.147,0,.111-.121.1-.273l.194.011c-.056-.163-.154-.151-.242-.247.018-.181.169-.219.3-.261.03-.29-.242.2-.278-.143a.969.969,0,0,0-.121-.7c.067-.169.119.03.174-.03l-.154-.151c0-.036.051-.024.075-.018-.061-.126-.194-.011-.247-.21-.214-.053.312-.407.069-.653.055-.061.119.029.194.011a1.835,1.835,0,0,0-.33-.567l.128-.236c-.146.172-.318-.049-.46-.243a1.689,1.689,0,0,0-.162.149,2.844,2.844,0,0,1-.1-.327c.034-.041.1,0,.176.06L.753,2.315c.085-.112.185-.027.291.045a1.29,1.29,0,0,0-.124.1.6.6,0,0,0,.362.132.212.212,0,0,1-.052-.1c.033.021.061.034.08.024s-.022-.043-.072-.094a1.954,1.954,0,0,1,.219-.036L1.373,2.37a.639.639,0,0,1,.179-.182.635.635,0,0,1,.091-.919c-.032.192.09.244.158.42-.175-.142-.162.187-.261.255.066-.043.118.035.131.066a.682.682,0,0,1,.073-.288c.07.137.1.077.176.118-.152-.272.108-.259.256-.335.01.1-.051.2-.158.192.114.213.226-.366.446-.172-.051,0-.079-.013-.1.039.12-.091.415-.019.346.069l-.051,0c.343.036,1.042,0,1.093-.256a2.344,2.344,0,0,1-.066.364L4.3.873c-.053.222.154.751-.13.876a.4.4,0,0,0,.355-.01c-.056-.032-.14-.321-.063-.341.209.247.145.132.4.343-.084-.047.009-.395.141-.384-.021.052.011.343-.036.379l.327-.341c-.081.062-.013.289.06.386-.034-.067.283.006.37-.028l-.138-.079c.37.051.366-.48.732-.463-.045.072-.109.435.078.477.085-.175.378-.84.7-.975l.062.1L7.406.7A6.115,6.115,0,0,1,6.578,1.73c.14.079.039.118.247.109.074.094-.113.142-.174.147l.483.061c-.022-.2.369-.2.35-.374l-.523.211a.641.641,0,0,1,.645-.544c.087.081-.066.364-.058.432.045-.07.325-.135.357-.085L7.759,1.8c.191.077.311-.271.54-.075.079.012.236.262.249.142A2.053,2.053,0,0,1,8.48.735a2.458,2.458,0,0,1,.505.338c.13.182-.2.435-.085.591a.283.283,0,0,1,.107-.147c.083.049-.034.174.146.148.03-.208.367.017.086-.175.176-.06.187.043.394.033-.066-.134.187-.454.363-.514a.258.258,0,0,0,.049.153c.362.018.556.112.893.114.032.05.194.111.125.2.049-.036.092-.107.2-.112.2.18-.232.028-.079.243.013-.12.27-.165.418-.24-.046-.186-.343-.035-.491.039,0-.256.257-.525.61-.642.281-.064.121.165.17.129.527.045.449-.447.885-.262.174.163.009.324.046.442-.228.062-.35-.1-.505-.1l.191.078A.335.335,0,0,1,12.2,1.1c.145.146.889.028,1.295.163.072-.055.2-.111.137-.176l-.129.022c-.118-.131.243-.182.08-.243A.771.771,0,0,1,14.187.7l.046.186c0-.053-.159-.111-.227-.053.1-.083.372.251.483.009l-.17-.13c.172-.094.386-.29.6-.232-.1-.183-.049.021-.2-.194.132.268-.55-.011-.338.271-.157-.25-.271-.107-.476-.319.006.062.073.118-.108.087a.216.216,0,0,1-.039.053l-.012,0,.01.007c-.009.009-.009.011,0,0a.226.226,0,0,1,.092.094c-.09.141-.378.136-.475.209-.107-.029.045-.07-.013-.136l-.145.109C13.2.525,12.935.434,13.186.355L12.959.349a.5.5,0,0,0-.43-.05c-.108-.029-.271.151-.177.044l-.357.085,0-.034C11.64.377,11.269.62,10.867.373a.815.815,0,0,1-.438.038L10.391.293c-.152.041-.457-.118-.522,0-.164-.317-.737-.069-1-.125l-.01.153a1.906,1.906,0,0,0-.588.1L8.28.559c-.2.112-.505-.1-.817-.083.022-.052.1-.039.157-.007C7.247.162,6.834.693,6.5.469a.18.18,0,0,1-.2,0A.058.058,0,0,0,6.315.461l-.035,0L6.163.387a.414.414,0,0,0,.1.073A.958.958,0,0,0,6,.513L5.96.367l-.022,0c-.095-.053-.075.069-.026.18a.484.484,0,0,0-.128.087C5.708.4,5.532.718,5.428.467c-.066.123-.485.092-.536.35,0-.033-.032-.05.021-.051A.331.331,0,0,0,4.6.779L4.556.593l-.234.25c-.142-.113-.2-.18-.061-.322-.341.22-.277.083-.567.3L3.708.7c-.1,0-.27.166-.333.067A1.271,1.271,0,0,0,2.638.641C2.47.637,2.3.635,2.118.62a3.324,3.324,0,0,0-.712.049C1.7.915.964.7,1.086.981,1,.941.867.983.94.835c-.3.338-.61.451-.543.842-.1.016-.07-.14-.135-.118,0,.044.007.169-.056.2S.163,1.667.16,1.577c-.171.506.13.6.352.651-.134.206-.109.279.049.391C.481,2.674.4,2.766.37,2.573c-.012.108-.117.663.078.674-.05.034-.015.152.007.181a2.921,2.921,0,0,0-.01.5l.032-.066c.234.095.052.2.08.392L.533,4.253c-.169.442.081.192-.112.628l.146-.024C.881,4.9.383,5.244.5,5.5l.083-.092c.107.138-.426.387-.465.526-.027.03-.044-.047-.064-.09-.185.363.192.047.236.318-.1.05-.261-.064-.281.118-.084.091.334.53.136.779.08-.055.159-.109.219.017.028.193-.3.521-.05.7A.092.092,0,0,1,.254,7.8c.064.147.107.48.243.568-.5.136.244.917-.22.915L.3,9.74.255,9.729a.492.492,0,0,0,.192.494c-.032.067-.075.018-.1.012a.767.767,0,0,0,.157.822l-.151.036c.087.1-.236.613-.06,1.029a.1.1,0,0,1-.068-.045c.177.468-.418,1.12.131,1.291l.135.308c.043-.4.238.06.329-.1.032.157-.165.406-.194.213l.028-.03c-.285-.07-.1.5-.3.486.015.786-.143,1.552-.155,2.288l.222-.085L.412,16.7c-.052.067-.174.09-.164-.092-.126.1.1.306.153.312-.09.358-.259-.141-.264-.03l.016.149.027-.034c.09.121.186.132.175.352-.044.14-.136.072-.145.126-.016,0-.023.018-.007.084l-.018.324.175-.13c.086.143-.009.3.189.155C.243,18.137.44,19.125.344,19.26a.98.98,0,0,1,.111.645c.036-.061.233-.1.209.114-.406-.078-.176.387-.469.56.194-.153.049.6.323.362-.033.176-.152.011-.248.145.158.42-.1.927-.049,1.448.053.007.135-.08.214.032l-.266.274c.026.1.307.095.123.283.045-.027.112-.067.13,0a3.072,3.072,0,0,0-.085.771,2.086,2.086,0,0,0,.179.957,2.612,2.612,0,0,0,1.691,1.286c-.14-.1-.046-.113.061-.118-.069-.024,0-.131-.011-.2l.432.2c.079-.2.465-.015.51-.206l-.137.035c.182-.227-.255-.5-.228-.794-.181.253-.59-.373-.82-.023-.039-.067.052-.086.035-.157-.061.115-.152.131-.244.032l.024-.023c-.31-.121-.343-.379-.307-.661l-.138.043c.009-.085.057-.08.09-.141-.225-.094,0,.234-.239.17.267-.056,0-.877.324-.967,0-.2-.166.058-.165-.141l.09-.052-.115-.05a.236.236,0,0,1,.208-.2c-.009.032.022.089.028.123.106-.169-.036-.475,0-.533l-.056.191A9.94,9.94,0,0,0,1.4,20.938l-.068.04c-.125-.4.075-.319.017-.758l.016.016a.491.491,0,0,1-.094-.325c.079.111.154-.208.243-.063-.135-.432-.107-.214-.358-.5l.112-.067a.4.4,0,0,1-.185-.324c.1.18.171-.14.3.062.245-.46-.249-.683.112-.894-.312-.21-.174.4-.24.281-.1.1-.233-.175-.2-.318.007-.147.4-.25.392-.619,0,.036.023.039.022.075.079-.137-.108-.27.021-.44-.188-.095.011-.22-.23-.248l.056.339c-.063-.192-.344-.372-.208-.687a.533.533,0,0,1,.148.182c.07-.092-.047-.177.026-.273.24.027.052.412.236.617.1-.1-.174-.389.086-.285-.332-.148.043-.364-.211-.615l.145.017c-.023-.04-.091-.121-.087-.194l.187.132c-.159-.2.14-.391.052-.585,0,.407-.172.092-.278.264-.193-.5.377-.288.307-.85.021.077-.086.285-.153.168a.717.717,0,0,1,.16-.315c-.029-.372-.148.057-.237-.1.176-.126-.07-.182-.128-.346H1.5c.094-.424-.3-.113-.192-.494l.2.162-.052-.2.166.041a.525.525,0,0,1-.045-.5.2.2,0,0,1-.27-.215c.086-.128.138.072.118-.194.092.061.206.126.072.242.047.012.092.06.14.072.1-.138.022-.346.021-.443a.209.209,0,0,1-.034.1l-.2-.386c.055-.061.1-.012.142.035-.016-.078-.083-.131-.095-.247.119.029.242.023.3.186l-.132-.368c.052-.024.142-.188.186-.141.07-.2-.231-.5-.138-.77a.16.16,0,0,1-.062-.1c.027-.254.172-.479.01-.78l.214-.17c-.049-.236-.27.231-.35-.162-.068-.278.182-.1.242-.2-.108-.138-.327-.378-.153-.633.04.084.009.151.024.23M1.515,6.487c.032.056.126.169.039.209-.168-.064-.087-.113-.039-.209M1.2,2.159c.039.044,0,.079-.058.129A.131.131,0,0,1,1.2,2.159M12.784.434l-.006.007c-.125-.057-.081-.034.006-.007M13.046.5a.043.043,0,0,0,.013-.062c-.018.038-.077.04-.143.029.018.039.052.066.13.033M.264,17.514.3,17.463c.043.115,0,.083-.038.051" transform="translate(0 0.028)" fill="#fb6b00"/>
    <path id="Pfad_4587" data-name="Pfad 4587" d="M1.136,2.14a.187.187,0,0,1-.08.024c.026.022.053.022.08-.024" transform="translate(0.227 0.459)" fill="#fb6b00"/>
    <path id="Pfad_4588" data-name="Pfad 4588" d="M1.389,9.246v.009l.026.01Z" transform="translate(0.298 1.983)" fill="#fb6b00"/>
    <path id="Pfad_4589" data-name="Pfad 4589" d="M7.432,1.47a.211.211,0,0,1-.1-.075c0,.035.021.066.1.075" transform="translate(1.572 0.299)" fill="#fb6b00"/>
    <path id="Pfad_4590" data-name="Pfad 4590" d="M11.91.229l-.168.038a.2.2,0,0,1,.151.049c0-.034-.035-.084.017-.086" transform="translate(2.519 0.049)" fill="#fb6b00"/>
    <path id="Pfad_4591" data-name="Pfad 4591" d="M13.082.991c.024-.018.052,0,.075-.021L13.152.9c-.1,0-.177.06-.069.089" transform="translate(2.795 0.193)" fill="#fb6b00"/>
    <path id="Pfad_4592" data-name="Pfad 4592" d="M12.007.64c.013.123.118.081.234.058h-.021c.035-.172-.09-.115-.214-.058" transform="translate(2.576 0.125)" fill="#fb6b00"/>
    <path id="Pfad_4593" data-name="Pfad 4593" d="M12.223.682a.36.36,0,0,1,.108,0c.013-.068-.044-.013-.108,0" transform="translate(2.622 0.138)" fill="#fb6b00"/>
    <path id="Pfad_4594" data-name="Pfad 4594" d="M11.033.393c.056.032.035-.158.067-.107.062-.158-.37.189-.067.107" transform="translate(2.344 0.052)" fill="#fb6b00"/>
    <path id="Pfad_4595" data-name="Pfad 4595" d="M12.1.991,12.061.839,12,.962Z" transform="translate(2.574 0.18)" fill="#fb6b00"/>
    <path id="Pfad_4596" data-name="Pfad 4596" d="M11.324.876l.187.043c0-.026.021-.041.05-.052-.115,0-.242-.035-.237.01" transform="translate(2.43 0.183)" fill="#fb6b00"/>
    <path id="Pfad_4597" data-name="Pfad 4597" d="M11.519.869A.248.248,0,0,0,11.67.843a.6.6,0,0,0-.151.026" transform="translate(2.471 0.181)" fill="#fb6b00"/>
    <path id="Pfad_4598" data-name="Pfad 4598" d="M11.907,1.009,11.851.978,11.72.967Z" transform="translate(2.515 0.207)" fill="#fb6b00"/>
    <path id="Pfad_4599" data-name="Pfad 4599" d="M9.7.848,9.5.892c-.021.052.035.084.111.063C9.66.918,9.736.9,9.7.848" transform="translate(2.037 0.182)" fill="#fb6b00"/>
    <path id="Pfad_4600" data-name="Pfad 4600" d="M10.193,1.211c-.055-.032-.058-.066-.09-.115l-.006.188Z" transform="translate(2.166 0.235)" fill="#fb6b00"/>
    <path id="Pfad_4601" data-name="Pfad 4601" d="M9.712,1.227c-.021.052-.3.151-.038.138.021-.052.225-.1.038-.138" transform="translate(2.052 0.263)" fill="#fb6b00"/>
    <path id="Pfad_4602" data-name="Pfad 4602" d="M7.154,1.086l.052,0L7.2.774Z" transform="translate(1.535 0.166)" fill="#fb6b00"/>
    <path id="Pfad_4603" data-name="Pfad 4603" d="M4.927,1.682c.242.074.057-.191.274-.1.058-.073-.177-.075-.12-.138-.145.077-.221.034-.154.237" transform="translate(1.052 0.31)" fill="#fb6b00"/>
    <path id="Pfad_4604" data-name="Pfad 4604" d="M5.05,1.453a.44.44,0,0,0,.074-.047.218.218,0,0,0-.074.047" transform="translate(1.083 0.301)" fill="#fb6b00"/>
    <path id="Pfad_4605" data-name="Pfad 4605" d="M2.452,21.584l.155.064-.1-.1Z" transform="translate(0.526 4.622)" fill="#fb6b00"/>
    <path id="Pfad_4606" data-name="Pfad 4606" d="M2.7,21.388l.036.2.094-.179c-.035.01-.1.027-.13-.018" transform="translate(0.579 4.588)" fill="#fb6b00"/>
    <path id="Pfad_4607" data-name="Pfad 4607" d="M1.593,5.011,1.546,5c-.051.024-.055.061-.062.134Z" transform="translate(0.318 1.072)" fill="#fb6b00"/>
    <path id="Pfad_4608" data-name="Pfad 4608" d="M1.484,6.752l0-.036-.177.068Z" transform="translate(0.281 1.441)" fill="#fb6b00"/>
    <path id="Pfad_4609" data-name="Pfad 4609" d="M1.657,8.245c.007-.072-.033-.157-.024-.23.032.158-.2.249.024.23" transform="translate(0.335 1.719)" fill="#fb6b00"/>
    <path id="Pfad_4610" data-name="Pfad 4610" d="M1.161,25.579c-.051.035.055.109.064.132.052-.092-.09-.154-.064-.132" transform="translate(0.246 5.487)" fill="#fb6b00"/>
    <path id="Pfad_4611" data-name="Pfad 4611" d="M1.581,24.845l.024.05.016-.2Z" transform="translate(0.339 5.299)" fill="#fb6b00"/>
    <path id="Pfad_4612" data-name="Pfad 4612" d="M2.213,24.272c-.216-.09-.219.267-.392.333l-.055-.016.069.177c.126-.164.233-.435.378-.494" transform="translate(0.379 5.204)" fill="#fb6b00"/>
    <path id="Pfad_4613" data-name="Pfad 4613" d="M2.719,24.258c-.081-.038.026-.129-.1.064a.249.249,0,0,1,.03,0,.548.548,0,0,1,.072-.064" transform="translate(0.561 5.192)" fill="#fb6b00"/>
    <path id="Pfad_4614" data-name="Pfad 4614" d="M2.645,24.3c-.067.075.1,0,0,0" transform="translate(0.564 5.213)" fill="#fb6b00"/>
    <path id="Pfad_4615" data-name="Pfad 4615" d="M2.889,24.005l-.04.146c.056.016.146-.058.141,0,.067-.124.011-.14-.1-.143" transform="translate(0.611 5.15)" fill="#fb6b00"/>
    <path id="Pfad_4616" data-name="Pfad 4616" d="M2.868,23.84l-.026.07c.023.006.041,0,.026-.07" transform="translate(0.61 5.115)" fill="#fb6b00"/>
    <path id="Pfad_4617" data-name="Pfad 4617" d="M2.8,24.051l.055-.149c-.039-.012-.09-.06-.029.063-.038-.053-.015.011-.026.086" transform="translate(0.6 5.124)" fill="#fb6b00"/>
    <path id="Pfad_4618" data-name="Pfad 4618" d="M2.766,24.064c-.085.018-.174.066-.134-.081-.157.2-.023.281.134.081" transform="translate(0.55 5.145)" fill="#fb6b00"/>
    <path id="Pfad_4619" data-name="Pfad 4619" d="M2.054,24.11l-.114.024-.01.112c0-.055.176-.092.124-.136" transform="translate(0.414 5.172)" fill="#fb6b00"/>
    <path id="Pfad_4620" data-name="Pfad 4620" d="M3.46,23.609c-.027-.039-.118-.056-.166-.09l-.032.106c.057-.013.145-.06.2-.016" transform="translate(0.7 5.046)" fill="#fb6b00"/>
    <path id="Pfad_4621" data-name="Pfad 4621" d="M3.292,23.547l.046-.159c-.1.085-.087.129-.046.159" transform="translate(0.7 5.018)" fill="#fb6b00"/>
    <path id="Pfad_4622" data-name="Pfad 4622" d="M2.746,23.692l-.051.287.083-.321Z" transform="translate(0.578 5.076)" fill="#fb6b00"/>
    <path id="Pfad_4623" data-name="Pfad 4623" d="M3.751,23.288l.017.134-.01-.217Z" transform="translate(0.805 4.978)" fill="#fb6b00"/>
    <path id="Pfad_4624" data-name="Pfad 4624" d="M3.954,23.078c.019.106.165.046.158.131a.556.556,0,0,0,.072-.3.27.27,0,0,1-.23.168" transform="translate(0.848 4.915)" fill="#fb6b00"/>
    <path id="Pfad_4625" data-name="Pfad 4625" d="M4.165,22.777a.748.748,0,0,0-.021.162.385.385,0,0,0,.021-.162" transform="translate(0.889 4.886)" fill="#fb6b00"/>
    <path id="Pfad_4626" data-name="Pfad 4626" d="M3.483,23.264a.2.2,0,0,0,.174.012l-.132-.051-.041.039" transform="translate(0.747 4.983)" fill="#fb6b00"/>
    <path id="Pfad_4627" data-name="Pfad 4627" d="M3.514,23.238h0c.045-.041.078-.07.092-.081l-.1.08" transform="translate(0.754 4.968)" fill="#fb6b00"/>
    <path id="Pfad_4628" data-name="Pfad 4628" d="M3.475,23.267l.011-.01c-.013,0-.018-.006-.011.01" transform="translate(0.745 4.989)" fill="#fb6b00"/>
    <path id="Pfad_4629" data-name="Pfad 4629" d="M3.048,23.578c.009-.112.08-.293-.12-.249.019.106.134.081.12.249" transform="translate(0.628 5.003)" fill="#fb6b00"/>
    <path id="Pfad_4630" data-name="Pfad 4630" d="M3.362,23.212l-.13.089c.027.022.081.038.077.092Z" transform="translate(0.693 4.98)" fill="#fb6b00"/>
    <path id="Pfad_4631" data-name="Pfad 4631" d="M3.363,23.144l-.024.083.049-.033Z" transform="translate(0.716 4.965)" fill="#fb6b00"/>
    <path id="Pfad_4632" data-name="Pfad 4632" d="M3.956,22.9a.374.374,0,0,1,.107-.206.954.954,0,0,0-.215.16c.019.038.045.117.108.046" transform="translate(0.826 4.868)" fill="#fb6b00"/>
    <path id="Pfad_4633" data-name="Pfad 4633" d="M3.726,23.033l0-.016c-.013,0-.021,0,0,.016" transform="translate(0.797 4.938)" fill="#fb6b00"/>
    <path id="Pfad_4634" data-name="Pfad 4634" d="M4.5,22.219l-.024-.007.012.018Z" transform="translate(0.961 4.765)" fill="#fb6b00"/>
    <path id="Pfad_4635" data-name="Pfad 4635" d="M3.837,22.819a.121.121,0,0,0-.069.135.629.629,0,0,1,.1-.129c-.01-.016-.017-.026-.028-.006" transform="translate(0.808 4.893)" fill="#fb6b00"/>
    <path id="Pfad_4636" data-name="Pfad 4636" d="M4.281,22.61a.731.731,0,0,0-.131.03c.052.006.147,0,.131-.03" transform="translate(0.89 4.851)" fill="#fb6b00"/>
    <path id="Pfad_4637" data-name="Pfad 4637" d="M3.763,23.025l0,.011c.034,0,.023,0,0-.011" transform="translate(0.807 4.94)" fill="#fb6b00"/>
    <path id="Pfad_4638" data-name="Pfad 4638" d="M3.77,23.046a.383.383,0,0,0,.006-.118.444.444,0,0,0-.047.108.184.184,0,0,1,.041.01" transform="translate(0.8 4.919)" fill="#fb6b00"/>
    <path id="Pfad_4639" data-name="Pfad 4639" d="M4.186,21.606a.2.2,0,0,1-.165.311c-.041.168.306.379.555.445-.034-.04-.069-.075-.011-.233-.084-.009-.347.131-.334-.036.1-.187.147-.087.261-.112-.165-.047.028-.336-.159-.46l-.07.18c-.027-.022-.019-.106-.077-.094" transform="translate(0.862 4.617)" fill="#fb6b00"/>
    <path id="Pfad_4640" data-name="Pfad 4640" d="M4.306,22.406l-.034.055a.547.547,0,0,1,.268-.038c.033-.115.017-.163-.006-.2l-.231.206Z" transform="translate(0.917 4.768)" fill="#fb6b00"/>
    <path id="Pfad_4641" data-name="Pfad 4641" d="M4.146,22.638c-.058-.128.01-.273-.157-.308-.123.137-.013.169-.051.287.187-.233-.009.112.2.013a.638.638,0,0,1-.089.137A.98.98,0,0,1,4.2,22.7H4.185v0c-.021,0-.032-.006-.015-.01l0-.006a.237.237,0,0,1-.026-.045c.08-.041.034.015.026.045l.012.016h0l.16-.261a.764.764,0,0,0-.2.2" transform="translate(0.843 4.791)" fill="#fb6b00"/>
    <path id="Pfad_4642" data-name="Pfad 4642" d="M2.856,23.074a.044.044,0,0,1,.028.015c0-.024,0-.038-.028-.015" transform="translate(0.613 4.948)" fill="#fb6b00"/>
    <path id="Pfad_4643" data-name="Pfad 4643" d="M3,23.046c0,.028.022.078-.038.118-.07.016-.044-.044-.077-.073-.006.055-.039.171.1.123v-.028c.117-.052.341-.046.339-.018A.977.977,0,0,0,3,23.046" transform="translate(0.617 4.944)" fill="#fb6b00"/>
    <path id="Pfad_4644" data-name="Pfad 4644" d="M3.535,22.83l.131-.221-.17.01.052.044c-.118.08-.036.118-.013.168" transform="translate(0.748 4.85)" fill="#fb6b00"/>
    <path id="Pfad_4645" data-name="Pfad 4645" d="M4.552,22.261l.074.121-.036-.239Z" transform="translate(0.977 4.75)" fill="#fb6b00"/>
    <path id="Pfad_4646" data-name="Pfad 4646" d="M4.73,22.046l.077.094.009-.112Z" transform="translate(1.015 4.726)" fill="#fb6b00"/>
    <path id="Pfad_4647" data-name="Pfad 4647" d="M14.446,10.6l.028-.075a.215.215,0,0,0-.028.075" transform="translate(3.099 2.258)" fill="#fb6b00"/>
    <path id="Pfad_4648" data-name="Pfad 4648" d="M14.134,10.894l.033.051c-.006-.04-.016-.064-.033-.051" transform="translate(3.032 2.336)" fill="#fb6b00"/>
    <path id="Pfad_4649" data-name="Pfad 4649" d="M9.328,17.448c.154,0,.361.044.257-.043l-.117-.07a.207.207,0,0,1-.141.113" transform="translate(2.001 3.719)" fill="#fb6b00"/>
    <path id="Pfad_4650" data-name="Pfad 4650" d="M12.034,13.817l-.05-.006c.013.05.026.1.038.14,0-.041.007-.086.012-.134" transform="translate(2.571 2.963)" fill="#fb6b00"/>
    <path id="Pfad_4651" data-name="Pfad 4651" d="M11.752,13.462l.159-.039a.475.475,0,0,0-.159.039" transform="translate(2.521 2.88)" fill="#fb6b00"/>
    <path id="Pfad_4652" data-name="Pfad 4652" d="M16.055,8.859,16.02,8.7c-.094.095,0,.1.035.155" transform="translate(3.428 1.867)" fill="#fb6b00"/>
    <path id="Pfad_4653" data-name="Pfad 4653" d="M6.625,20.112a.565.565,0,0,0,.217-.106c-.131.024-.274.007-.217.106" transform="translate(1.419 4.292)" fill="#fb6b00"/>
    <path id="Pfad_4654" data-name="Pfad 4654" d="M15.143,11.543c.015-.049.01-.081-.012-.1-.017.049-.017.085.012.1" transform="translate(3.244 2.455)" fill="#fb6b00"/>
    <path id="Pfad_4655" data-name="Pfad 4655" d="M6.989,19.852c-.021,0-.036.009-.056.012a.481.481,0,0,1-.131.175c.1-.017.188-.06.187-.187" transform="translate(1.459 4.259)" fill="#fb6b00"/>
    <path id="Pfad_4656" data-name="Pfad 4656" d="M22.187,2.816a.23.23,0,0,1,.028-.006c-.011-.013-.019-.007-.028.006" transform="translate(4.76 0.601)" fill="#fb6b00"/>
    <path id="Pfad_4657" data-name="Pfad 4657" d="M24.747,1.816a.715.715,0,0,1-.081.1c.023-.01.049-.038.081-.1" transform="translate(5.292 0.389)" fill="#fb6b00"/>
    <path id="Pfad_4658" data-name="Pfad 4658" d="M5.521,21.321c-.043.055,0,.018,0,0" transform="translate(1.181 4.574)" fill="#fb6b00"/>
    <path id="Pfad_4659" data-name="Pfad 4659" d="M5.026,21.223A.1.1,0,0,0,5,21.159a.119.119,0,0,1,.026.064" transform="translate(1.073 4.539)" fill="#fb6b00"/>
    <path id="Pfad_4660" data-name="Pfad 4660" d="M6.877,18.98l0,0c-.032,0-.027,0,0,0" transform="translate(1.472 4.071)" fill="#fb6b00"/>
    <path id="Pfad_4661" data-name="Pfad 4661" d="M5.423,21.352a.357.357,0,0,0,.09-.034.333.333,0,0,0-.09.034" transform="translate(1.164 4.573)" fill="#fb6b00"/>
    <path id="Pfad_4662" data-name="Pfad 4662" d="M5.477,21.375c-.021.012-.036.023-.051.033.01.022.024.027.051-.033" transform="translate(1.164 4.586)" fill="#fb6b00"/>
    <path id="Pfad_4663" data-name="Pfad 4663" d="M5.584,21.262a.31.31,0,0,1-.087.068c.016,0,.024,0,.026,0,.012-.016.03-.038.062-.073" transform="translate(1.179 4.561)" fill="#fb6b00"/>
    <path id="Pfad_4664" data-name="Pfad 4664" d="M19.134,6.288a.1.1,0,0,1,.019,0c.01-.087,0-.061-.019,0" transform="translate(4.105 1.337)" fill="#fb6b00"/>
    <path id="Pfad_4665" data-name="Pfad 4665" d="M9.568,15.6v.01l.011,0Z" transform="translate(2.052 3.346)" fill="#fb6b00"/>
    <path id="Pfad_4666" data-name="Pfad 4666" d="M9.67,15.4c.043.189-.015.217-.095.249l.326.211Z" transform="translate(2.054 3.303)" fill="#fb6b00"/>
    <path id="Pfad_4667" data-name="Pfad 4667" d="M17.393,11.72l-.206.039c.009-.285.164-.345-.068-.347.274.308-.446.5-.171.811l-.141.019c.026-.021.013-.041.038-.061-.3.016.095.327-.147.486-.094.049-.185.055-.171-.028l-.085.228c-.051.04-.09-.022-.039-.061l-.215.261-.007-.01a1.592,1.592,0,0,1,0,.3c-.1.018,0-.062-.053-.083l-.061.2c-.13-.022-.092-.2.009-.285-.415-.168-.036.183-.472.279l.089-.162c-.247-.085-.284.072-.527.111.086.019.54-.023.47.193a.2.2,0,0,0-.145.2c-.1-.1-.154,0-.243.1l-.131-.143c-.061.141.016.2.017.325-.128.1-.257.017-.373-.046-.205.162.3.045.106.287-.2.1-.254.262-.353.525-.153.06-.064-.1-.141-.1l.013.2c-.026.019-.051-.021-.064-.041-.036.121.131.143.044.3.118.185-.477.035-.459.361-.078,0-.067-.1-.131-.145a1.617,1.617,0,0,0-.121.589l-.238.058c.211-.006.2.255.174.477a1.877,1.877,0,0,0,.208.021l-.12.267c-.046,0-.074-.066-.1-.155a.473.473,0,0,0,0,.069c-.12.018-.164-.1-.191-.223.051,0,.1.01.155.015a.654.654,0,0,0-.174-.339.175.175,0,0,1-.027.1c-.01-.035-.022-.063-.041-.072s-.012.044-.009.111l-.2-.109.05.072-.349.158a2.1,2.1,0,0,1-.186,1.072c-.04-.183-.168-.2-.3-.335.219.062.164-.284.341-.4a.083.083,0,0,1-.141-.06l-.138.395c-.1-.114-.138-.024-.254,0,.268.163-.055.341-.1.516-.079-.066-.126-.165.023-.281-.308-.016.063.442-.217.448.032-.035.06-.041.035-.091-.011.14-.247.274-.266.168l.03-.034c-.238.189-.653.652-.5.866a2.358,2.358,0,0,1-.215-.3l.232,1c-.124-.191-.628-.435-.538-.7a.315.315,0,0,0-.215.228c.057-.012.315.14.281.2-.306-.045-.183,0-.493.009.086-.018.272.285.183.361-.026-.05-.251-.236-.247-.291l.038.447c.006-.095-.2-.214-.31-.237.067.027-.183.174-.215.253l.143-.032c-.268.2.111.568-.132.787-.022-.079-.237-.377-.385-.29.069.177.357.833.249,1.132l-.109-.032L9.31,21.5a6.11,6.11,0,0,1-.21-1.25c-.143.03-.108-.06-.232.078-.112-.021-.029-.171,0-.214l-.345.26c.158.131-.087.377.045.485l.179-.479a.6.6,0,0,1-.021.789c-.112,0-.215-.3-.268-.341.022.078-.107.3-.162.283l.012-.169c-.172.066,0,.386-.284.392-.06.04-.334-.038-.257.056a2.318,2.318,0,0,1,.842.755,2.29,2.29,0,0,1-.556.078c-.211-.047-.186-.43-.366-.472a.277.277,0,0,1,.036.171c-.085.018-.1-.145-.194-.013.126.165-.244.217.069.177-.069.152-.148.087-.27.223.134.053.2.438.135.591a.263.263,0,0,0-.138-.078c-.239.214-.426.268-.64.479-.056-.016-.2.044-.219-.063-.006.056.017.134-.045.2-.254,0,.125-.165-.121-.221.075.094-.053.285-.092.431.159.1.239-.189.279-.335a.78.78,0,0,1,.074.837c-.132.221-.2-.04-.2.016-.363.3.034.6-.369.74-.226-.006-.236-.225-.344-.283.1-.187.293-.147.386-.248l-.175.064c.007-.084.074-.209.159-.227-.193-.012-.577.537-.927.7-.007.084-.045.2.039.211l.064-.1c.166.019-.023.281.123.222-.043.174-.06.4-.266.5l-.16-.1c.043.035.179-.021.181-.1,0,.121-.412.055-.308.3l.2-.016c-.044.175-.038.448-.214.542.191.069.016-.046.264.011-.272-.107.352-.336.022-.4.273.078.243-.1.522-.074-.047-.039-.129-.036.006-.129a.245.245,0,0,1-.013-.063l.012,0H5.555c0-.011,0-.012,0,0a.218.218,0,0,1-.124-.009c-.043-.155.141-.333.149-.445.087-.047.023.078.1.087l.013-.169c.106.087.339-.017.237.2l.147-.137a.4.4,0,0,0,.3-.236c.087-.046.064-.276.08-.142l.163-.283.028.022c.232-.208.291-.612.719-.69a.634.634,0,0,1,.247-.3l.108.06c.066-.124.369-.2.324-.33.325.123.509-.412.717-.539l-.1-.115a1.471,1.471,0,0,0,.3-.437l-.106-.087c.045-.2.385-.249.571-.454.023.051-.035.09-.094.1.451-.016.334-.65.7-.7a.144.144,0,0,1,.129-.128.031.031,0,0,0-.009.018.158.158,0,0,0,.023-.021,1.153,1.153,0,0,0,.124-.022.342.342,0,0,0-.113.011.751.751,0,0,0,.124-.2l.13.078.011-.017c.1-.021,0-.1-.111-.142a.444.444,0,0,0,.018-.142c.214.119.1-.215.345-.1-.046-.128.239-.369.087-.584.026.022.055.016.024.05.087-.047.176-.094.185-.205l.16.1-.03-.324c.171-.009.253,0,.266.191.06-.369.114-.232.142-.568l.077.094c.062-.068.052-.287.162-.255.307.016.742-.7,1.267-.922-.323-.177.285-.061.106-.27.081.038.166.018.158.13.132-.248.38-.192.349-.487.081.038.046.128.1.143,0-.028.009-.112.064-.1s.022.078.017.134c.185-.2.022-.407-.135-.591.18-.018.217-.079.176-.262.092.022.206.023.106.164.077-.06.5-.334.368-.477.057.013.1-.085.107-.119a2.309,2.309,0,0,0,.325-.308l-.066.018c-.106-.225.087-.162.188-.3l.015.021c.4-.158.062-.176.472-.315l-.117-.087c-.2-.247.372-.112.447-.356h-.118c.011-.163.544.06.658,0,.039,0,0,.061-.011.1.358-.1-.106-.164.033-.366.1.041.145.226.273.125.115,0,.095-.568.39-.584-.09-.022-.18-.044-.143-.165.1-.141.539-.115.471-.4a.088.088,0,0,1,.066.022c.047-.138.225-.377.185-.527.442.27.4-.748.729-.418l.266-.3.028.041a.416.416,0,0,0,.172-.446c.064-.019.064.041.08.062.33-.2.343-.239.4-.625l.13.083c0-.121.551-.217.687-.6a.108.108,0,0,1,.018.077c.169-.419,1-.407.717-.9l.1-.289c-.282.221-.131-.205-.3-.166.077-.121.372-.137.271,0H20.8c.158.247.384-.239.515-.095.481-.5,1.075-.871,1.544-1.323l-.21-.1.171-.152c.077-.006.177.066.056.175.151.028.119-.267.089-.3.288-.162.1.271.168.205l.081-.1-.039,0c.012-.14-.05-.215.1-.345.118-.056.14.052.181.023.011.012.027,0,.057-.047l.217-.189-.206-.044c.029-.151.2-.183-.038-.231.355.079.834-.678.986-.695a.792.792,0,0,1,.325-.482c-.064.012-.225-.1-.077-.22.24.336.368-.118.683-.018-.232-.041.344-.412,0-.455.135-.089.117.1.266.084.154-.375.653-.508.944-.872-.034-.043-.147-.046-.132-.171l.361.016c.045-.083-.158-.277.091-.264-.05-.015-.121-.038-.092-.094C27.657,3.5,27.99,2.5,28.983,2.2c-.162.015-.111-.051-.045-.12-.062.026-.092-.095-.152-.137l.414-.129c-.094-.192.279-.3.172-.465l-.062.111c-.046-.274-.515-.2-.706-.419.056.311-.607.068-.556.538-.087,0-.026-.106-.1-.128.034.141-.012.223-.171.3l-.009-.035a4.808,4.808,0,0,1-.975.731l.128.074a.361.361,0,0,1-.206.064c.062.247.236-.219.323.036-.316-.1-.573.566-.882.4-.126.124.154.081.029.2l-.1-.03.049.114a.226.226,0,0,1-.272-.022c.027-.013.043-.072.058-.1-.181.03-.273.323-.333.335l.158-.08c-.279.4-.777.729-.975,1.187l.073.023c-.162.339-.254.147-.487.463V5.1a.4.4,0,0,1-.138.27c.013-.125-.24.022-.211-.131-.176.366-.058.209-.058.566l-.123-.038a.345.345,0,0,1-.072.334c.044-.181-.21-.034-.174-.25-.463.113-.253.6-.639.48.089.353.373-.126.345,0,.134.01.056.273-.056.341-.1.087-.438-.125-.666.111.024-.022.009-.04.033-.062-.143.03-.095.245-.293.26.074.193-.145.131.007.318l.174-.251c-.077.164.011.476-.284.578a.508.508,0,0,1,.01-.22c-.107.007-.078.145-.189.153-.153-.187.222-.3.221-.554-.134-.009-.121.368-.242.119.142.327-.257.2-.234.533l-.092-.112c-.009.04-.012.14-.06.183l-.05-.215c-.013.239-.343.146-.4.329.251-.257.18.066.362.032-.179.451-.447-.085-.751.316.034-.062.24-.118.214,0a.6.6,0,0,1-.311.083c-.211.255.142.069.1.231-.2-.045-.063.165-.126.307l-.1-.1c-.333.2.146.287-.174.446l-.043-.245-.089.162-.091-.143c-.049.223-.112.243-.279.343a.2.2,0,0,1,.056.327c-.141.018-.052-.143-.2.038-.028-.1-.068-.225.1-.2-.028-.041-.029-.1-.055-.143-.155.016-.232.2-.291.262a.17.17,0,0,1,.089-.041l-.1.385c-.078,0-.078-.062-.078-.123-.039.061-.026.142-.089.222-.064-.1-.157-.185-.094-.327l-.137.324c-.052-.022-.219.017-.22-.044-.177.079-.151.477-.385.581a.142.142,0,0,1-.017.107c-.18.14-.424.177-.5.481l-.257-.044c-.114.182.334.045.147.349-.126.222-.2-.064-.3-.045-.009.163,0,.468-.287.505.023-.081.086-.1.126-.162m-1.756,1.889c.015-.057.018-.194.1-.159.079.158-.01.132-.1.159m-2.518,3.017c-.009-.06.049-.084.135-.09a.2.2,0,0,1-.135.09M6.127,25.059v-.009c.118-.039.074-.027,0,.009m-.206.119a.044.044,0,0,0,.033.051c-.015-.038.022-.075.07-.111-.04-.016-.079-.013-.1.06m17.511-17.6-.058,0c.041-.1.05-.055.058,0" transform="translate(1.02 0.223)" fill="#fb6b00"/>
    <path id="Pfad_4668" data-name="Pfad 4668" d="M11.783,13.5a.2.2,0,0,1,.072.041c0-.032-.023-.052-.072-.041" transform="translate(2.528 2.895)" fill="#fb6b00"/>
    <path id="Pfad_4669" data-name="Pfad 4669" d="M16.048,8.861l.006,0a.091.091,0,0,0-.012-.024Z" transform="translate(3.442 1.895)" fill="#fb6b00"/>
    <path id="Pfad_4670" data-name="Pfad 4670" d="M7.075,18.112a.2.2,0,0,1,.118-.011c-.023-.028-.06-.034-.118.011" transform="translate(1.518 3.879)" fill="#fb6b00"/>
    <path id="Pfad_4671" data-name="Pfad 4671" d="M5.154,21.8l.078-.131a.166.166,0,0,1-.129.06c.027.022.083.038.051.072" transform="translate(1.095 4.648)" fill="#fb6b00"/>
    <path id="Pfad_4672" data-name="Pfad 4672" d="M3.875,21.994c0,.028-.032.034-.033.062l.052.044c.062-.068.068-.153-.019-.106" transform="translate(0.824 4.716)" fill="#fb6b00"/>
    <path id="Pfad_4673" data-name="Pfad 4673" d="M4.814,21.573c-.095-.079-.13.016-.188.106a.039.039,0,0,1,.012-.012c.1.143.138.024.176-.094" transform="translate(0.993 4.622)" fill="#fb6b00"/>
    <path id="Pfad_4674" data-name="Pfad 4674" d="M4.627,21.672a.28.28,0,0,1-.066.07c.04.057.038-.018.066-.07" transform="translate(0.979 4.649)" fill="#fb6b00"/>
    <path id="Pfad_4675" data-name="Pfad 4675" d="M5.592,21.144c-.057.012.09.134.034.118.073.149.1-.367-.034-.118" transform="translate(1.197 4.521)" fill="#fb6b00"/>
    <path id="Pfad_4676" data-name="Pfad 4676" d="M4.5,21.389l.134.081-.045-.128Z" transform="translate(0.965 4.579)" fill="#fb6b00"/>
    <path id="Pfad_4677" data-name="Pfad 4677" d="M5.064,20.969l-.147.087c.019.016.016.041,0,.068.077-.068.177-.126.142-.155" transform="translate(1.055 4.499)" fill="#fb6b00"/>
    <path id="Pfad_4678" data-name="Pfad 4678" d="M4.936,21.1a.2.2,0,0,0-.077.112.405.405,0,0,0,.077-.112" transform="translate(1.042 4.526)" fill="#fb6b00"/>
    <path id="Pfad_4679" data-name="Pfad 4679" d="M4.6,21.238l.057-.012.091-.075Z" transform="translate(0.987 4.537)" fill="#fb6b00"/>
    <path id="Pfad_4680" data-name="Pfad 4680" d="M6.1,19.983l.1-.159c-.024-.05-.081-.038-.114.026,0,.056-.039.118.017.134" transform="translate(1.302 4.246)" fill="#fb6b00"/>
    <path id="Pfad_4681" data-name="Pfad 4681" d="M5.531,20.045c.057-.012.083.01.138.026l-.13-.137Z" transform="translate(1.187 4.276)" fill="#fb6b00"/>
    <path id="Pfad_4682" data-name="Pfad 4682" d="M5.828,19.724c-.024-.05.079-.291-.074-.121.023.05-.074.209.074.121" transform="translate(1.232 4.193)" fill="#fb6b00"/>
    <path id="Pfad_4683" data-name="Pfad 4683" d="M7.544,18.244l-.03.034.222.214Z" transform="translate(1.612 3.914)" fill="#fb6b00"/>
    <path id="Pfad_4684" data-name="Pfad 4684" d="M8.525,16.415c-.2.1.1.171-.1.243.016.086.164-.06.172.022.038-.146.117-.163-.069-.265" transform="translate(1.807 3.522)" fill="#fb6b00"/>
    <path id="Pfad_4685" data-name="Pfad 4685" d="M8.566,16.633a.459.459,0,0,0-.013.08.2.2,0,0,0,.013-.08" transform="translate(1.835 3.568)" fill="#fb6b00"/>
    <path id="Pfad_4686" data-name="Pfad 4686" d="M25.123,1.63l.143-.052-.137-.01Z" transform="translate(5.39 0.336)" fill="#fb6b00"/>
    <path id="Pfad_4687" data-name="Pfad 4687" d="M25.144,1.343l.163.117-.068-.185c-.016.028-.046.083-.095.068" transform="translate(5.395 0.273)" fill="#fb6b00"/>
    <path id="Pfad_4688" data-name="Pfad 4688" d="M13.261,11.379l.026.041c.052.021.078,0,.129-.039Z" transform="translate(2.845 2.441)" fill="#fb6b00"/>
    <path id="Pfad_4689" data-name="Pfad 4689" d="M14.44,10.377l-.026.019.169.084Z" transform="translate(3.093 2.226)" fill="#fb6b00"/>
    <path id="Pfad_4690" data-name="Pfad 4690" d="M15.238,9.331c-.051.04-.075.121-.126.162.075-.121.3-.017.126-.162" transform="translate(3.242 2.002)" fill="#fb6b00"/>
  </g>
</svg>
